<?xml version="1.0" encoding="utf-8" standalone="no"?>
<!DOCTYPE svg PUBLIC "-//W3C//DTD SVG 1.1//EN"
  "http://www.w3.org/Graphics/SVG/1.1/DTD/svg11.dtd">
<svg xmlns:xlink="http://www.w3.org/1999/xlink" width="1016.39952pt" height="512.39952pt" viewBox="0 0 1016.39952 512.39952" xmlns="http://www.w3.org/2000/svg" version="1.1">
 <metadata>
  <rdf:RDF xmlns:dc="http://purl.org/dc/elements/1.1/" xmlns:cc="http://creativecommons.org/ns#" xmlns:rdf="http://www.w3.org/1999/02/22-rdf-syntax-ns#">
   <cc:Work>
    <dc:type rdf:resource="http://purl.org/dc/dcmitype/StillImage"/>
    <dc:date>2026-04-26T21:48:11.281257</dc:date>
    <dc:format>image/svg+xml</dc:format>
    <dc:creator>
     <cc:Agent>
      <dc:title>Matplotlib v3.10.9, https://matplotlib.org/</dc:title>
     </cc:Agent>
    </dc:creator>
   </cc:Work>
  </rdf:RDF>
 </metadata>
 <defs>
  <style type="text/css">*{stroke-linejoin: round; stroke-linecap: butt}</style>
 </defs>
 <g id="figure_1">
  <g id="patch_1">
   <path d="M 0 512.39952 
L 1016.39952 512.39952 
L 1016.39952 0 
L 0 0 
z
" style="fill: #ffffff"/>
  </g>
  <g id="axes_1">
   <g id="patch_2">
    <path d="M 54.096563 472.73702 
L 1009.19952 472.73702 
L 1009.19952 24.597656 
L 54.096563 24.597656 
z
" style="fill: #ffffff"/>
   </g>
   <g id="line2d_1">
    <path d="M 54.096563 235.486769 
L 1009.19952 235.486769 
" clip-path="url(#p081e157070)" style="fill: none; stroke: #3a3540; stroke-width: 1.2; stroke-linecap: square"/>
   </g>
   <g id="matplotlib.axis_1">
    <g id="xtick_1">
     <g id="line2d_2">
      <defs>
       <path id="md88f909c1d" d="M 0 0 
L 0 3.5 
" style="stroke: #000000; stroke-width: 0.8"/>
      </defs>
      <g>
       <use xlink:href="#md88f909c1d" x="68.567819" y="472.73702" style="stroke: #000000; stroke-width: 0.8"/>
      </g>
     </g>
     <g id="text_1">
      <!-- 0.1 -->
      <g transform="translate(60.616257 487.335457) scale(0.1 -0.1)">
       <defs>
        <path id="DejaVuSans-30" d="M 2034 4250 
Q 1547 4250 1301 3770 
Q 1056 3291 1056 2328 
Q 1056 1369 1301 889 
Q 1547 409 2034 409 
Q 2525 409 2770 889 
Q 3016 1369 3016 2328 
Q 3016 3291 2770 3770 
Q 2525 4250 2034 4250 
z
M 2034 4750 
Q 2819 4750 3233 4129 
Q 3647 3509 3647 2328 
Q 3647 1150 3233 529 
Q 2819 -91 2034 -91 
Q 1250 -91 836 529 
Q 422 1150 422 2328 
Q 422 3509 836 4129 
Q 1250 4750 2034 4750 
z
" transform="scale(0.015625)"/>
        <path id="DejaVuSans-2e" d="M 684 794 
L 1344 794 
L 1344 0 
L 684 0 
L 684 794 
z
" transform="scale(0.015625)"/>
        <path id="DejaVuSans-31" d="M 794 531 
L 1825 531 
L 1825 4091 
L 703 3866 
L 703 4441 
L 1819 4666 
L 2450 4666 
L 2450 531 
L 3481 531 
L 3481 0 
L 794 0 
L 794 531 
z
" transform="scale(0.015625)"/>
       </defs>
       <use xlink:href="#DejaVuSans-30"/>
       <use xlink:href="#DejaVuSans-2e" transform="translate(63.623047 0)"/>
       <use xlink:href="#DejaVuSans-31" transform="translate(95.410156 0)"/>
      </g>
     </g>
    </g>
    <g id="xtick_2">
     <g id="line2d_3">
      <g>
       <use xlink:href="#md88f909c1d" x="184.337875" y="472.73702" style="stroke: #000000; stroke-width: 0.8"/>
      </g>
     </g>
     <g id="text_2">
      <!-- 0.2 -->
      <g transform="translate(176.386312 487.335457) scale(0.1 -0.1)">
       <defs>
        <path id="DejaVuSans-32" d="M 1228 531 
L 3431 531 
L 3431 0 
L 469 0 
L 469 531 
Q 828 903 1448 1529 
Q 2069 2156 2228 2338 
Q 2531 2678 2651 2914 
Q 2772 3150 2772 3378 
Q 2772 3750 2511 3984 
Q 2250 4219 1831 4219 
Q 1534 4219 1204 4116 
Q 875 4013 500 3803 
L 500 4441 
Q 881 4594 1212 4672 
Q 1544 4750 1819 4750 
Q 2544 4750 2975 4387 
Q 3406 4025 3406 3419 
Q 3406 3131 3298 2873 
Q 3191 2616 2906 2266 
Q 2828 2175 2409 1742 
Q 1991 1309 1228 531 
z
" transform="scale(0.015625)"/>
       </defs>
       <use xlink:href="#DejaVuSans-30"/>
       <use xlink:href="#DejaVuSans-2e" transform="translate(63.623047 0)"/>
       <use xlink:href="#DejaVuSans-32" transform="translate(95.410156 0)"/>
      </g>
     </g>
    </g>
    <g id="xtick_3">
     <g id="line2d_4">
      <g>
       <use xlink:href="#md88f909c1d" x="300.10793" y="472.73702" style="stroke: #000000; stroke-width: 0.8"/>
      </g>
     </g>
     <g id="text_3">
      <!-- 0.3 -->
      <g transform="translate(292.156368 487.335457) scale(0.1 -0.1)">
       <defs>
        <path id="DejaVuSans-33" d="M 2597 2516 
Q 3050 2419 3304 2112 
Q 3559 1806 3559 1356 
Q 3559 666 3084 287 
Q 2609 -91 1734 -91 
Q 1441 -91 1130 -33 
Q 819 25 488 141 
L 488 750 
Q 750 597 1062 519 
Q 1375 441 1716 441 
Q 2309 441 2620 675 
Q 2931 909 2931 1356 
Q 2931 1769 2642 2001 
Q 2353 2234 1838 2234 
L 1294 2234 
L 1294 2753 
L 1863 2753 
Q 2328 2753 2575 2939 
Q 2822 3125 2822 3475 
Q 2822 3834 2567 4026 
Q 2313 4219 1838 4219 
Q 1578 4219 1281 4162 
Q 984 4106 628 3988 
L 628 4550 
Q 988 4650 1302 4700 
Q 1616 4750 1894 4750 
Q 2613 4750 3031 4423 
Q 3450 4097 3450 3541 
Q 3450 3153 3228 2886 
Q 3006 2619 2597 2516 
z
" transform="scale(0.015625)"/>
       </defs>
       <use xlink:href="#DejaVuSans-30"/>
       <use xlink:href="#DejaVuSans-2e" transform="translate(63.623047 0)"/>
       <use xlink:href="#DejaVuSans-33" transform="translate(95.410156 0)"/>
      </g>
     </g>
    </g>
    <g id="xtick_4">
     <g id="line2d_5">
      <g>
       <use xlink:href="#md88f909c1d" x="415.877986" y="472.73702" style="stroke: #000000; stroke-width: 0.8"/>
      </g>
     </g>
     <g id="text_4">
      <!-- 0.4 -->
      <g transform="translate(407.926423 487.335457) scale(0.1 -0.1)">
       <defs>
        <path id="DejaVuSans-34" d="M 2419 4116 
L 825 1625 
L 2419 1625 
L 2419 4116 
z
M 2253 4666 
L 3047 4666 
L 3047 1625 
L 3713 1625 
L 3713 1100 
L 3047 1100 
L 3047 0 
L 2419 0 
L 2419 1100 
L 313 1100 
L 313 1709 
L 2253 4666 
z
" transform="scale(0.015625)"/>
       </defs>
       <use xlink:href="#DejaVuSans-30"/>
       <use xlink:href="#DejaVuSans-2e" transform="translate(63.623047 0)"/>
       <use xlink:href="#DejaVuSans-34" transform="translate(95.410156 0)"/>
      </g>
     </g>
    </g>
    <g id="xtick_5">
     <g id="line2d_6">
      <g>
       <use xlink:href="#md88f909c1d" x="531.648041" y="472.73702" style="stroke: #000000; stroke-width: 0.8"/>
      </g>
     </g>
     <g id="text_5">
      <!-- 0.5 -->
      <g transform="translate(523.696479 487.335457) scale(0.1 -0.1)">
       <defs>
        <path id="DejaVuSans-35" d="M 691 4666 
L 3169 4666 
L 3169 4134 
L 1269 4134 
L 1269 2991 
Q 1406 3038 1543 3061 
Q 1681 3084 1819 3084 
Q 2600 3084 3056 2656 
Q 3513 2228 3513 1497 
Q 3513 744 3044 326 
Q 2575 -91 1722 -91 
Q 1428 -91 1123 -41 
Q 819 9 494 109 
L 494 744 
Q 775 591 1075 516 
Q 1375 441 1709 441 
Q 2250 441 2565 725 
Q 2881 1009 2881 1497 
Q 2881 1984 2565 2268 
Q 2250 2553 1709 2553 
Q 1456 2553 1204 2497 
Q 953 2441 691 2322 
L 691 4666 
z
" transform="scale(0.015625)"/>
       </defs>
       <use xlink:href="#DejaVuSans-30"/>
       <use xlink:href="#DejaVuSans-2e" transform="translate(63.623047 0)"/>
       <use xlink:href="#DejaVuSans-35" transform="translate(95.410156 0)"/>
      </g>
     </g>
    </g>
    <g id="xtick_6">
     <g id="line2d_7">
      <g>
       <use xlink:href="#md88f909c1d" x="647.418097" y="472.73702" style="stroke: #000000; stroke-width: 0.8"/>
      </g>
     </g>
     <g id="text_6">
      <!-- 0.6 -->
      <g transform="translate(639.466534 487.335457) scale(0.1 -0.1)">
       <defs>
        <path id="DejaVuSans-36" d="M 2113 2584 
Q 1688 2584 1439 2293 
Q 1191 2003 1191 1497 
Q 1191 994 1439 701 
Q 1688 409 2113 409 
Q 2538 409 2786 701 
Q 3034 994 3034 1497 
Q 3034 2003 2786 2293 
Q 2538 2584 2113 2584 
z
M 3366 4563 
L 3366 3988 
Q 3128 4100 2886 4159 
Q 2644 4219 2406 4219 
Q 1781 4219 1451 3797 
Q 1122 3375 1075 2522 
Q 1259 2794 1537 2939 
Q 1816 3084 2150 3084 
Q 2853 3084 3261 2657 
Q 3669 2231 3669 1497 
Q 3669 778 3244 343 
Q 2819 -91 2113 -91 
Q 1303 -91 875 529 
Q 447 1150 447 2328 
Q 447 3434 972 4092 
Q 1497 4750 2381 4750 
Q 2619 4750 2861 4703 
Q 3103 4656 3366 4563 
z
" transform="scale(0.015625)"/>
       </defs>
       <use xlink:href="#DejaVuSans-30"/>
       <use xlink:href="#DejaVuSans-2e" transform="translate(63.623047 0)"/>
       <use xlink:href="#DejaVuSans-36" transform="translate(95.410156 0)"/>
      </g>
     </g>
    </g>
    <g id="xtick_7">
     <g id="line2d_8">
      <g>
       <use xlink:href="#md88f909c1d" x="763.188152" y="472.73702" style="stroke: #000000; stroke-width: 0.8"/>
      </g>
     </g>
     <g id="text_7">
      <!-- 0.7 -->
      <g transform="translate(755.23659 487.335457) scale(0.1 -0.1)">
       <defs>
        <path id="DejaVuSans-37" d="M 525 4666 
L 3525 4666 
L 3525 4397 
L 1831 0 
L 1172 0 
L 2766 4134 
L 525 4134 
L 525 4666 
z
" transform="scale(0.015625)"/>
       </defs>
       <use xlink:href="#DejaVuSans-30"/>
       <use xlink:href="#DejaVuSans-2e" transform="translate(63.623047 0)"/>
       <use xlink:href="#DejaVuSans-37" transform="translate(95.410156 0)"/>
      </g>
     </g>
    </g>
    <g id="xtick_8">
     <g id="line2d_9">
      <g>
       <use xlink:href="#md88f909c1d" x="878.958208" y="472.73702" style="stroke: #000000; stroke-width: 0.8"/>
      </g>
     </g>
     <g id="text_8">
      <!-- 0.8 -->
      <g transform="translate(871.006645 487.335457) scale(0.1 -0.1)">
       <defs>
        <path id="DejaVuSans-38" d="M 2034 2216 
Q 1584 2216 1326 1975 
Q 1069 1734 1069 1313 
Q 1069 891 1326 650 
Q 1584 409 2034 409 
Q 2484 409 2743 651 
Q 3003 894 3003 1313 
Q 3003 1734 2745 1975 
Q 2488 2216 2034 2216 
z
M 1403 2484 
Q 997 2584 770 2862 
Q 544 3141 544 3541 
Q 544 4100 942 4425 
Q 1341 4750 2034 4750 
Q 2731 4750 3128 4425 
Q 3525 4100 3525 3541 
Q 3525 3141 3298 2862 
Q 3072 2584 2669 2484 
Q 3125 2378 3379 2068 
Q 3634 1759 3634 1313 
Q 3634 634 3220 271 
Q 2806 -91 2034 -91 
Q 1263 -91 848 271 
Q 434 634 434 1313 
Q 434 1759 690 2068 
Q 947 2378 1403 2484 
z
M 1172 3481 
Q 1172 3119 1398 2916 
Q 1625 2713 2034 2713 
Q 2441 2713 2670 2916 
Q 2900 3119 2900 3481 
Q 2900 3844 2670 4047 
Q 2441 4250 2034 4250 
Q 1625 4250 1398 4047 
Q 1172 3844 1172 3481 
z
" transform="scale(0.015625)"/>
       </defs>
       <use xlink:href="#DejaVuSans-30"/>
       <use xlink:href="#DejaVuSans-2e" transform="translate(63.623047 0)"/>
       <use xlink:href="#DejaVuSans-38" transform="translate(95.410156 0)"/>
      </g>
     </g>
    </g>
    <g id="xtick_9">
     <g id="line2d_10">
      <g>
       <use xlink:href="#md88f909c1d" x="994.728263" y="472.73702" style="stroke: #000000; stroke-width: 0.8"/>
      </g>
     </g>
     <g id="text_9">
      <!-- 0.9 -->
      <g transform="translate(986.776701 487.335457) scale(0.1 -0.1)">
       <defs>
        <path id="DejaVuSans-39" d="M 703 97 
L 703 672 
Q 941 559 1184 500 
Q 1428 441 1663 441 
Q 2288 441 2617 861 
Q 2947 1281 2994 2138 
Q 2813 1869 2534 1725 
Q 2256 1581 1919 1581 
Q 1219 1581 811 2004 
Q 403 2428 403 3163 
Q 403 3881 828 4315 
Q 1253 4750 1959 4750 
Q 2769 4750 3195 4129 
Q 3622 3509 3622 2328 
Q 3622 1225 3098 567 
Q 2575 -91 1691 -91 
Q 1453 -91 1209 -44 
Q 966 3 703 97 
z
M 1959 2075 
Q 2384 2075 2632 2365 
Q 2881 2656 2881 3163 
Q 2881 3666 2632 3958 
Q 2384 4250 1959 4250 
Q 1534 4250 1286 3958 
Q 1038 3666 1038 3163 
Q 1038 2656 1286 2365 
Q 1534 2075 1959 2075 
z
" transform="scale(0.015625)"/>
       </defs>
       <use xlink:href="#DejaVuSans-30"/>
       <use xlink:href="#DejaVuSans-2e" transform="translate(63.623047 0)"/>
       <use xlink:href="#DejaVuSans-39" transform="translate(95.410156 0)"/>
      </g>
     </g>
    </g>
    <g id="text_10">
     <!-- Player baseline (training-period S/36 percentile) -->
     <g style="fill: #3a3540" transform="translate(384.167104 502.53327) scale(0.12 -0.12)">
      <defs>
       <path id="DejaVuSerif-50" d="M 1581 2375 
L 2406 2375 
Q 2872 2375 3115 2626 
Q 3359 2878 3359 3353 
Q 3359 3831 3115 4081 
Q 2872 4331 2406 4331 
L 1581 4331 
L 1581 2375 
z
M 353 0 
L 353 331 
L 947 331 
L 947 4331 
L 353 4331 
L 353 4666 
L 2559 4666 
Q 3259 4666 3668 4311 
Q 4078 3956 4078 3353 
Q 4078 2753 3668 2397 
Q 3259 2041 2559 2041 
L 1581 2041 
L 1581 331 
L 2303 331 
L 2303 0 
L 353 0 
z
" transform="scale(0.015625)"/>
       <path id="DejaVuSerif-6c" d="M 1313 331 
L 1856 331 
L 1856 0 
L 184 0 
L 184 331 
L 738 331 
L 738 4531 
L 184 4531 
L 184 4863 
L 1313 4863 
L 1313 331 
z
" transform="scale(0.015625)"/>
       <path id="DejaVuSerif-61" d="M 2547 1044 
L 2547 1747 
L 1806 1747 
Q 1378 1747 1168 1562 
Q 959 1378 959 997 
Q 959 650 1171 447 
Q 1384 244 1747 244 
Q 2106 244 2326 466 
Q 2547 688 2547 1044 
z
M 3122 2075 
L 3122 331 
L 3634 331 
L 3634 0 
L 2547 0 
L 2547 359 
Q 2356 128 2106 18 
Q 1856 -91 1522 -91 
Q 969 -91 644 203 
Q 319 497 319 997 
Q 319 1513 691 1797 
Q 1063 2081 1741 2081 
L 2547 2081 
L 2547 2309 
Q 2547 2688 2317 2895 
Q 2088 3103 1672 3103 
Q 1328 3103 1125 2947 
Q 922 2791 872 2484 
L 575 2484 
L 575 3156 
Q 875 3284 1158 3348 
Q 1441 3413 1709 3413 
Q 2400 3413 2761 3070 
Q 3122 2728 3122 2075 
z
" transform="scale(0.015625)"/>
       <path id="DejaVuSerif-79" d="M 1381 -609 
L 1600 -56 
L 359 2988 
L -19 2988 
L -19 3322 
L 1509 3322 
L 1509 2988 
L 978 2988 
L 1913 703 
L 2847 2988 
L 2350 2988 
L 2350 3322 
L 3597 3322 
L 3597 2988 
L 3225 2988 
L 1703 -750 
Q 1547 -1138 1356 -1280 
Q 1166 -1422 819 -1422 
Q 672 -1422 517 -1397 
Q 363 -1372 206 -1325 
L 206 -691 
L 500 -691 
Q 519 -903 608 -995 
Q 697 -1088 884 -1088 
Q 1056 -1088 1161 -992 
Q 1266 -897 1381 -609 
z
" transform="scale(0.015625)"/>
       <path id="DejaVuSerif-65" d="M 3469 1600 
L 991 1600 
L 991 1575 
Q 991 903 1244 561 
Q 1497 219 1991 219 
Q 2369 219 2611 417 
Q 2853 616 2950 1006 
L 3413 1006 
Q 3275 459 2904 184 
Q 2534 -91 1931 -91 
Q 1203 -91 761 389 
Q 319 869 319 1663 
Q 319 2450 753 2931 
Q 1188 3413 1894 3413 
Q 2647 3413 3050 2948 
Q 3453 2484 3469 1600 
z
M 2791 1931 
Q 2772 2513 2545 2808 
Q 2319 3103 1894 3103 
Q 1497 3103 1269 2806 
Q 1041 2509 991 1931 
L 2791 1931 
z
" transform="scale(0.015625)"/>
       <path id="DejaVuSerif-72" d="M 3059 3328 
L 3059 2497 
L 2728 2497 
Q 2713 2744 2591 2866 
Q 2469 2988 2234 2988 
Q 1809 2988 1582 2694 
Q 1356 2400 1356 1850 
L 1356 331 
L 2022 331 
L 2022 0 
L 263 0 
L 263 331 
L 781 331 
L 781 2994 
L 231 2994 
L 231 3322 
L 1356 3322 
L 1356 2731 
Q 1525 3078 1790 3245 
Q 2056 3413 2438 3413 
Q 2578 3413 2733 3391 
Q 2888 3369 3059 3328 
z
" transform="scale(0.015625)"/>
       <path id="DejaVuSerif-20" transform="scale(0.015625)"/>
       <path id="DejaVuSerif-62" d="M 738 331 
L 738 4531 
L 184 4531 
L 184 4863 
L 1313 4863 
L 1313 2803 
Q 1481 3116 1742 3264 
Q 2003 3413 2388 3413 
Q 3000 3413 3387 2928 
Q 3775 2444 3775 1663 
Q 3775 881 3387 395 
Q 3000 -91 2388 -91 
Q 2003 -91 1742 57 
Q 1481 206 1313 519 
L 1313 0 
L 184 0 
L 184 331 
L 738 331 
z
M 1313 1497 
Q 1313 897 1542 583 
Q 1772 269 2209 269 
Q 2650 269 2876 622 
Q 3103 975 3103 1663 
Q 3103 2353 2876 2703 
Q 2650 3053 2209 3053 
Q 1772 3053 1542 2737 
Q 1313 2422 1313 1825 
L 1313 1497 
z
" transform="scale(0.015625)"/>
       <path id="DejaVuSerif-73" d="M 359 184 
L 359 959 
L 691 959 
Q 703 588 923 403 
Q 1144 219 1575 219 
Q 1963 219 2166 364 
Q 2369 509 2369 788 
Q 2369 1006 2220 1140 
Q 2072 1275 1594 1428 
L 1178 1569 
Q 750 1706 558 1912 
Q 366 2119 366 2438 
Q 366 2894 700 3153 
Q 1034 3413 1625 3413 
Q 1888 3413 2178 3344 
Q 2469 3275 2778 3144 
L 2778 2419 
L 2447 2419 
Q 2434 2741 2221 2922 
Q 2009 3103 1644 3103 
Q 1281 3103 1095 2975 
Q 909 2847 909 2591 
Q 909 2381 1050 2254 
Q 1191 2128 1613 1997 
L 2069 1856 
Q 2541 1709 2748 1489 
Q 2956 1269 2956 922 
Q 2956 450 2595 179 
Q 2234 -91 1600 -91 
Q 1278 -91 972 -22 
Q 666 47 359 184 
z
" transform="scale(0.015625)"/>
       <path id="DejaVuSerif-69" d="M 622 4353 
Q 622 4497 726 4603 
Q 831 4709 978 4709 
Q 1122 4709 1226 4603 
Q 1331 4497 1331 4353 
Q 1331 4206 1228 4103 
Q 1125 4000 978 4000 
Q 831 4000 726 4103 
Q 622 4206 622 4353 
z
M 1356 331 
L 1900 331 
L 1900 0 
L 231 0 
L 231 331 
L 781 331 
L 781 2988 
L 231 2988 
L 231 3322 
L 1356 3322 
L 1356 331 
z
" transform="scale(0.015625)"/>
       <path id="DejaVuSerif-6e" d="M 263 0 
L 263 331 
L 781 331 
L 781 2988 
L 231 2988 
L 231 3322 
L 1356 3322 
L 1356 2731 
Q 1516 3069 1770 3241 
Q 2025 3413 2363 3413 
Q 2913 3413 3172 3097 
Q 3431 2781 3431 2113 
L 3431 331 
L 3944 331 
L 3944 0 
L 2356 0 
L 2356 331 
L 2853 331 
L 2853 1931 
Q 2853 2541 2703 2767 
Q 2553 2994 2175 2994 
Q 1775 2994 1565 2701 
Q 1356 2409 1356 1850 
L 1356 331 
L 1856 331 
L 1856 0 
L 263 0 
z
" transform="scale(0.015625)"/>
       <path id="DejaVuSerif-28" d="M 2041 -997 
Q 1281 -656 893 83 
Q 506 822 506 1931 
Q 506 3044 893 3783 
Q 1281 4522 2041 4863 
L 2041 4556 
Q 1559 4225 1350 3623 
Q 1141 3022 1141 1931 
Q 1141 844 1350 242 
Q 1559 -359 2041 -691 
L 2041 -997 
z
" transform="scale(0.015625)"/>
       <path id="DejaVuSerif-74" d="M 691 2988 
L 184 2988 
L 184 3322 
L 691 3322 
L 691 4353 
L 1269 4353 
L 1269 3322 
L 2350 3322 
L 2350 2988 
L 1269 2988 
L 1269 878 
Q 1269 456 1350 337 
Q 1431 219 1650 219 
Q 1875 219 1978 351 
Q 2081 484 2088 781 
L 2522 781 
Q 2497 328 2275 118 
Q 2053 -91 1600 -91 
Q 1103 -91 897 129 
Q 691 350 691 878 
L 691 2988 
z
" transform="scale(0.015625)"/>
       <path id="DejaVuSerif-67" d="M 3359 2988 
L 3359 72 
Q 3359 -644 2965 -1033 
Q 2572 -1422 1844 -1422 
Q 1516 -1422 1216 -1362 
Q 916 -1303 641 -1184 
L 641 -488 
L 941 -488 
Q 997 -813 1206 -963 
Q 1416 -1113 1806 -1113 
Q 2313 -1113 2548 -827 
Q 2784 -541 2784 72 
L 2784 519 
Q 2616 206 2355 57 
Q 2094 -91 1709 -91 
Q 1097 -91 708 395 
Q 319 881 319 1663 
Q 319 2444 706 2928 
Q 1094 3413 1709 3413 
Q 2094 3413 2355 3264 
Q 2616 3116 2784 2803 
L 2784 3322 
L 3909 3322 
L 3909 2988 
L 3359 2988 
z
M 2784 1825 
Q 2784 2422 2554 2737 
Q 2325 3053 1888 3053 
Q 1444 3053 1217 2703 
Q 991 2353 991 1663 
Q 991 975 1217 622 
Q 1444 269 1888 269 
Q 2325 269 2554 583 
Q 2784 897 2784 1497 
L 2784 1825 
z
" transform="scale(0.015625)"/>
       <path id="DejaVuSerif-2d" d="M 281 1959 
L 1881 1959 
L 1881 1472 
L 281 1472 
L 281 1959 
z
" transform="scale(0.015625)"/>
       <path id="DejaVuSerif-70" d="M 1313 1825 
L 1313 1497 
Q 1313 897 1542 583 
Q 1772 269 2209 269 
Q 2650 269 2876 622 
Q 3103 975 3103 1663 
Q 3103 2353 2876 2703 
Q 2650 3053 2209 3053 
Q 1772 3053 1542 2737 
Q 1313 2422 1313 1825 
z
M 738 2988 
L 184 2988 
L 184 3322 
L 1313 3322 
L 1313 2803 
Q 1481 3116 1742 3264 
Q 2003 3413 2388 3413 
Q 3000 3413 3387 2928 
Q 3775 2444 3775 1663 
Q 3775 881 3387 395 
Q 3000 -91 2388 -91 
Q 2003 -91 1742 57 
Q 1481 206 1313 519 
L 1313 -997 
L 1856 -997 
L 1856 -1331 
L 184 -1331 
L 184 -997 
L 738 -997 
L 738 2988 
z
" transform="scale(0.015625)"/>
       <path id="DejaVuSerif-6f" d="M 1925 219 
Q 2388 219 2623 584 
Q 2859 950 2859 1663 
Q 2859 2375 2623 2739 
Q 2388 3103 1925 3103 
Q 1463 3103 1227 2739 
Q 991 2375 991 1663 
Q 991 950 1228 584 
Q 1466 219 1925 219 
z
M 1925 -91 
Q 1200 -91 759 389 
Q 319 869 319 1663 
Q 319 2456 758 2934 
Q 1197 3413 1925 3413 
Q 2653 3413 3092 2934 
Q 3531 2456 3531 1663 
Q 3531 869 3092 389 
Q 2653 -91 1925 -91 
z
" transform="scale(0.015625)"/>
       <path id="DejaVuSerif-64" d="M 3359 331 
L 3909 331 
L 3909 0 
L 2784 0 
L 2784 519 
Q 2616 206 2355 57 
Q 2094 -91 1709 -91 
Q 1097 -91 708 395 
Q 319 881 319 1663 
Q 319 2444 706 2928 
Q 1094 3413 1709 3413 
Q 2094 3413 2355 3264 
Q 2616 3116 2784 2803 
L 2784 4531 
L 2241 4531 
L 2241 4863 
L 3359 4863 
L 3359 331 
z
M 2784 1497 
L 2784 1825 
Q 2784 2422 2554 2737 
Q 2325 3053 1888 3053 
Q 1444 3053 1217 2703 
Q 991 2353 991 1663 
Q 991 975 1217 622 
Q 1444 269 1888 269 
Q 2325 269 2554 583 
Q 2784 897 2784 1497 
z
" transform="scale(0.015625)"/>
       <path id="DejaVuSerif-53" d="M 594 225 
L 594 1288 
L 953 1284 
Q 969 753 1261 498 
Q 1553 244 2150 244 
Q 2706 244 2998 464 
Q 3291 684 3291 1106 
Q 3291 1444 3114 1625 
Q 2938 1806 2369 1978 
L 1753 2163 
Q 1084 2366 811 2669 
Q 538 2972 538 3500 
Q 538 4094 959 4422 
Q 1381 4750 2144 4750 
Q 2469 4750 2856 4679 
Q 3244 4609 3681 4475 
L 3681 3481 
L 3328 3481 
Q 3275 3975 2998 4195 
Q 2722 4416 2156 4416 
Q 1663 4416 1405 4214 
Q 1147 4013 1147 3628 
Q 1147 3294 1340 3103 
Q 1534 2913 2163 2725 
L 2741 2553 
Q 3375 2363 3645 2067 
Q 3916 1772 3916 1275 
Q 3916 597 3481 253 
Q 3047 -91 2188 -91 
Q 1803 -91 1404 -12 
Q 1006 66 594 225 
z
" transform="scale(0.015625)"/>
       <path id="DejaVuSerif-2f" d="M 1656 4666 
L 2156 4666 
L 500 -594 
L 0 -594 
L 1656 4666 
z
" transform="scale(0.015625)"/>
       <path id="DejaVuSerif-33" d="M 622 4469 
Q 988 4606 1323 4678 
Q 1659 4750 1953 4750 
Q 2638 4750 3022 4454 
Q 3406 4159 3406 3634 
Q 3406 3213 3140 2930 
Q 2875 2647 2388 2547 
Q 2963 2466 3280 2130 
Q 3597 1794 3597 1259 
Q 3597 606 3158 257 
Q 2719 -91 1894 -91 
Q 1528 -91 1179 -12 
Q 831 66 488 225 
L 488 1131 
L 838 1131 
Q 869 681 1141 450 
Q 1413 219 1906 219 
Q 2384 219 2661 495 
Q 2938 772 2938 1253 
Q 2938 1803 2653 2086 
Q 2369 2369 1819 2369 
L 1522 2369 
L 1522 2688 
L 1678 2688 
Q 2225 2688 2498 2914 
Q 2772 3141 2772 3597 
Q 2772 4006 2547 4223 
Q 2322 4441 1900 4441 
Q 1478 4441 1245 4241 
Q 1013 4041 972 3647 
L 622 3647 
L 622 4469 
z
" transform="scale(0.015625)"/>
       <path id="DejaVuSerif-36" d="M 2094 219 
Q 2534 219 2771 542 
Q 3009 866 3009 1472 
Q 3009 2078 2771 2401 
Q 2534 2725 2094 2725 
Q 1647 2725 1412 2412 
Q 1178 2100 1178 1509 
Q 1178 888 1415 553 
Q 1653 219 2094 219 
z
M 1075 2569 
Q 1288 2803 1556 2918 
Q 1825 3034 2163 3034 
Q 2859 3034 3264 2615 
Q 3669 2197 3669 1472 
Q 3669 763 3233 336 
Q 2797 -91 2069 -91 
Q 1278 -91 853 498 
Q 428 1088 428 2181 
Q 428 3406 931 4078 
Q 1434 4750 2350 4750 
Q 2597 4750 2869 4703 
Q 3141 4656 3425 4563 
L 3425 3794 
L 3072 3794 
Q 3034 4109 2831 4275 
Q 2628 4441 2284 4441 
Q 1678 4441 1381 3981 
Q 1084 3522 1075 2569 
z
" transform="scale(0.015625)"/>
       <path id="DejaVuSerif-63" d="M 3291 997 
Q 3169 466 2822 187 
Q 2475 -91 1925 -91 
Q 1200 -91 759 389 
Q 319 869 319 1663 
Q 319 2459 759 2936 
Q 1200 3413 1925 3413 
Q 2241 3413 2553 3339 
Q 2866 3266 3181 3116 
L 3181 2266 
L 2847 2266 
Q 2781 2703 2561 2903 
Q 2341 3103 1931 3103 
Q 1466 3103 1228 2742 
Q 991 2381 991 1663 
Q 991 944 1227 581 
Q 1463 219 1931 219 
Q 2303 219 2525 412 
Q 2747 606 2828 997 
L 3291 997 
z
" transform="scale(0.015625)"/>
       <path id="DejaVuSerif-29" d="M 453 -997 
L 453 -691 
Q 934 -359 1145 242 
Q 1356 844 1356 1931 
Q 1356 3022 1145 3623 
Q 934 4225 453 4556 
L 453 4863 
Q 1216 4522 1603 3783 
Q 1991 3044 1991 1931 
Q 1991 822 1603 83 
Q 1216 -656 453 -997 
z
" transform="scale(0.015625)"/>
      </defs>
      <use xlink:href="#DejaVuSerif-50"/>
      <use xlink:href="#DejaVuSerif-6c" transform="translate(67.285156 0)"/>
      <use xlink:href="#DejaVuSerif-61" transform="translate(99.267578 0)"/>
      <use xlink:href="#DejaVuSerif-79" transform="translate(158.886719 0)"/>
      <use xlink:href="#DejaVuSerif-65" transform="translate(215.380859 0)"/>
      <use xlink:href="#DejaVuSerif-72" transform="translate(274.560547 0)"/>
      <use xlink:href="#DejaVuSerif-20" transform="translate(322.363281 0)"/>
      <use xlink:href="#DejaVuSerif-62" transform="translate(354.150391 0)"/>
      <use xlink:href="#DejaVuSerif-61" transform="translate(418.164062 0)"/>
      <use xlink:href="#DejaVuSerif-73" transform="translate(477.783203 0)"/>
      <use xlink:href="#DejaVuSerif-65" transform="translate(529.101562 0)"/>
      <use xlink:href="#DejaVuSerif-6c" transform="translate(588.28125 0)"/>
      <use xlink:href="#DejaVuSerif-69" transform="translate(620.263672 0)"/>
      <use xlink:href="#DejaVuSerif-6e" transform="translate(652.246094 0)"/>
      <use xlink:href="#DejaVuSerif-65" transform="translate(716.650391 0)"/>
      <use xlink:href="#DejaVuSerif-20" transform="translate(775.830078 0)"/>
      <use xlink:href="#DejaVuSerif-28" transform="translate(807.617188 0)"/>
      <use xlink:href="#DejaVuSerif-74" transform="translate(846.630859 0)"/>
      <use xlink:href="#DejaVuSerif-72" transform="translate(886.816406 0)"/>
      <use xlink:href="#DejaVuSerif-61" transform="translate(934.619141 0)"/>
      <use xlink:href="#DejaVuSerif-69" transform="translate(994.238281 0)"/>
      <use xlink:href="#DejaVuSerif-6e" transform="translate(1026.220703 0)"/>
      <use xlink:href="#DejaVuSerif-69" transform="translate(1090.625 0)"/>
      <use xlink:href="#DejaVuSerif-6e" transform="translate(1122.607422 0)"/>
      <use xlink:href="#DejaVuSerif-67" transform="translate(1187.011719 0)"/>
      <use xlink:href="#DejaVuSerif-2d" transform="translate(1251.025391 0)"/>
      <use xlink:href="#DejaVuSerif-70" transform="translate(1284.814453 0)"/>
      <use xlink:href="#DejaVuSerif-65" transform="translate(1348.828125 0)"/>
      <use xlink:href="#DejaVuSerif-72" transform="translate(1408.007812 0)"/>
      <use xlink:href="#DejaVuSerif-69" transform="translate(1455.810547 0)"/>
      <use xlink:href="#DejaVuSerif-6f" transform="translate(1487.792969 0)"/>
      <use xlink:href="#DejaVuSerif-64" transform="translate(1547.998047 0)"/>
      <use xlink:href="#DejaVuSerif-20" transform="translate(1612.011719 0)"/>
      <use xlink:href="#DejaVuSerif-53" transform="translate(1643.798828 0)"/>
      <use xlink:href="#DejaVuSerif-2f" transform="translate(1712.304688 0)"/>
      <use xlink:href="#DejaVuSerif-33" transform="translate(1745.996094 0)"/>
      <use xlink:href="#DejaVuSerif-36" transform="translate(1809.619141 0)"/>
      <use xlink:href="#DejaVuSerif-20" transform="translate(1873.242188 0)"/>
      <use xlink:href="#DejaVuSerif-70" transform="translate(1905.029297 0)"/>
      <use xlink:href="#DejaVuSerif-65" transform="translate(1969.042969 0)"/>
      <use xlink:href="#DejaVuSerif-72" transform="translate(2028.222656 0)"/>
      <use xlink:href="#DejaVuSerif-63" transform="translate(2076.025391 0)"/>
      <use xlink:href="#DejaVuSerif-65" transform="translate(2132.03125 0)"/>
      <use xlink:href="#DejaVuSerif-6e" transform="translate(2191.210938 0)"/>
      <use xlink:href="#DejaVuSerif-74" transform="translate(2255.615234 0)"/>
      <use xlink:href="#DejaVuSerif-69" transform="translate(2295.800781 0)"/>
      <use xlink:href="#DejaVuSerif-6c" transform="translate(2327.783203 0)"/>
      <use xlink:href="#DejaVuSerif-65" transform="translate(2359.765625 0)"/>
      <use xlink:href="#DejaVuSerif-29" transform="translate(2418.945312 0)"/>
     </g>
    </g>
   </g>
   <g id="matplotlib.axis_2">
    <g id="ytick_1">
     <g id="line2d_11">
      <path d="M 54.096563 446.375881 
L 1009.19952 446.375881 
" clip-path="url(#p081e157070)" style="fill: none; stroke: #b0b0b0; stroke-opacity: 0.3; stroke-width: 0.8; stroke-linecap: square"/>
     </g>
     <g id="line2d_12">
      <defs>
       <path id="m3b97ab7e92" d="M 0 0 
L -3.5 0 
" style="stroke: #000000; stroke-width: 0.8"/>
      </defs>
      <g>
       <use xlink:href="#m3b97ab7e92" x="54.096563" y="446.375881" style="stroke: #000000; stroke-width: 0.8"/>
      </g>
     </g>
     <g id="text_11">
      <!-- −0.4 -->
      <g transform="translate(22.81375 450.1751) scale(0.1 -0.1)">
       <defs>
        <path id="DejaVuSans-2212" d="M 678 2272 
L 4684 2272 
L 4684 1741 
L 678 1741 
L 678 2272 
z
" transform="scale(0.015625)"/>
       </defs>
       <use xlink:href="#DejaVuSans-2212"/>
       <use xlink:href="#DejaVuSans-30" transform="translate(83.789062 0)"/>
       <use xlink:href="#DejaVuSans-2e" transform="translate(147.412109 0)"/>
       <use xlink:href="#DejaVuSans-34" transform="translate(179.199219 0)"/>
      </g>
     </g>
    </g>
    <g id="ytick_2">
     <g id="line2d_13">
      <path d="M 54.096563 393.653603 
L 1009.19952 393.653603 
" clip-path="url(#p081e157070)" style="fill: none; stroke: #b0b0b0; stroke-opacity: 0.3; stroke-width: 0.8; stroke-linecap: square"/>
     </g>
     <g id="line2d_14">
      <g>
       <use xlink:href="#m3b97ab7e92" x="54.096563" y="393.653603" style="stroke: #000000; stroke-width: 0.8"/>
      </g>
     </g>
     <g id="text_12">
      <!-- −0.3 -->
      <g transform="translate(22.81375 397.452822) scale(0.1 -0.1)">
       <use xlink:href="#DejaVuSans-2212"/>
       <use xlink:href="#DejaVuSans-30" transform="translate(83.789062 0)"/>
       <use xlink:href="#DejaVuSans-2e" transform="translate(147.412109 0)"/>
       <use xlink:href="#DejaVuSans-33" transform="translate(179.199219 0)"/>
      </g>
     </g>
    </g>
    <g id="ytick_3">
     <g id="line2d_15">
      <path d="M 54.096563 340.931325 
L 1009.19952 340.931325 
" clip-path="url(#p081e157070)" style="fill: none; stroke: #b0b0b0; stroke-opacity: 0.3; stroke-width: 0.8; stroke-linecap: square"/>
     </g>
     <g id="line2d_16">
      <g>
       <use xlink:href="#m3b97ab7e92" x="54.096563" y="340.931325" style="stroke: #000000; stroke-width: 0.8"/>
      </g>
     </g>
     <g id="text_13">
      <!-- −0.2 -->
      <g transform="translate(22.81375 344.730544) scale(0.1 -0.1)">
       <use xlink:href="#DejaVuSans-2212"/>
       <use xlink:href="#DejaVuSans-30" transform="translate(83.789062 0)"/>
       <use xlink:href="#DejaVuSans-2e" transform="translate(147.412109 0)"/>
       <use xlink:href="#DejaVuSans-32" transform="translate(179.199219 0)"/>
      </g>
     </g>
    </g>
    <g id="ytick_4">
     <g id="line2d_17">
      <path d="M 54.096563 288.209047 
L 1009.19952 288.209047 
" clip-path="url(#p081e157070)" style="fill: none; stroke: #b0b0b0; stroke-opacity: 0.3; stroke-width: 0.8; stroke-linecap: square"/>
     </g>
     <g id="line2d_18">
      <g>
       <use xlink:href="#m3b97ab7e92" x="54.096563" y="288.209047" style="stroke: #000000; stroke-width: 0.8"/>
      </g>
     </g>
     <g id="text_14">
      <!-- −0.1 -->
      <g transform="translate(22.81375 292.008265) scale(0.1 -0.1)">
       <use xlink:href="#DejaVuSans-2212"/>
       <use xlink:href="#DejaVuSans-30" transform="translate(83.789062 0)"/>
       <use xlink:href="#DejaVuSans-2e" transform="translate(147.412109 0)"/>
       <use xlink:href="#DejaVuSans-31" transform="translate(179.199219 0)"/>
      </g>
     </g>
    </g>
    <g id="ytick_5">
     <g id="line2d_19">
      <path d="M 54.096563 235.486769 
L 1009.19952 235.486769 
" clip-path="url(#p081e157070)" style="fill: none; stroke: #b0b0b0; stroke-opacity: 0.3; stroke-width: 0.8; stroke-linecap: square"/>
     </g>
     <g id="line2d_20">
      <g>
       <use xlink:href="#m3b97ab7e92" x="54.096563" y="235.486769" style="stroke: #000000; stroke-width: 0.8"/>
      </g>
     </g>
     <g id="text_15">
      <!-- 0.0 -->
      <g transform="translate(31.193438 239.285987) scale(0.1 -0.1)">
       <use xlink:href="#DejaVuSans-30"/>
       <use xlink:href="#DejaVuSans-2e" transform="translate(63.623047 0)"/>
       <use xlink:href="#DejaVuSans-30" transform="translate(95.410156 0)"/>
      </g>
     </g>
    </g>
    <g id="ytick_6">
     <g id="line2d_21">
      <path d="M 54.096563 182.764491 
L 1009.19952 182.764491 
" clip-path="url(#p081e157070)" style="fill: none; stroke: #b0b0b0; stroke-opacity: 0.3; stroke-width: 0.8; stroke-linecap: square"/>
     </g>
     <g id="line2d_22">
      <g>
       <use xlink:href="#m3b97ab7e92" x="54.096563" y="182.764491" style="stroke: #000000; stroke-width: 0.8"/>
      </g>
     </g>
     <g id="text_16">
      <!-- 0.1 -->
      <g transform="translate(31.193438 186.563709) scale(0.1 -0.1)">
       <use xlink:href="#DejaVuSans-30"/>
       <use xlink:href="#DejaVuSans-2e" transform="translate(63.623047 0)"/>
       <use xlink:href="#DejaVuSans-31" transform="translate(95.410156 0)"/>
      </g>
     </g>
    </g>
    <g id="ytick_7">
     <g id="line2d_23">
      <path d="M 54.096563 130.042212 
L 1009.19952 130.042212 
" clip-path="url(#p081e157070)" style="fill: none; stroke: #b0b0b0; stroke-opacity: 0.3; stroke-width: 0.8; stroke-linecap: square"/>
     </g>
     <g id="line2d_24">
      <g>
       <use xlink:href="#m3b97ab7e92" x="54.096563" y="130.042212" style="stroke: #000000; stroke-width: 0.8"/>
      </g>
     </g>
     <g id="text_17">
      <!-- 0.2 -->
      <g transform="translate(31.193438 133.841431) scale(0.1 -0.1)">
       <use xlink:href="#DejaVuSans-30"/>
       <use xlink:href="#DejaVuSans-2e" transform="translate(63.623047 0)"/>
       <use xlink:href="#DejaVuSans-32" transform="translate(95.410156 0)"/>
      </g>
     </g>
    </g>
    <g id="ytick_8">
     <g id="line2d_25">
      <path d="M 54.096563 77.319934 
L 1009.19952 77.319934 
" clip-path="url(#p081e157070)" style="fill: none; stroke: #b0b0b0; stroke-opacity: 0.3; stroke-width: 0.8; stroke-linecap: square"/>
     </g>
     <g id="line2d_26">
      <g>
       <use xlink:href="#m3b97ab7e92" x="54.096563" y="77.319934" style="stroke: #000000; stroke-width: 0.8"/>
      </g>
     </g>
     <g id="text_18">
      <!-- 0.3 -->
      <g transform="translate(31.193438 81.119153) scale(0.1 -0.1)">
       <use xlink:href="#DejaVuSans-30"/>
       <use xlink:href="#DejaVuSans-2e" transform="translate(63.623047 0)"/>
       <use xlink:href="#DejaVuSans-33" transform="translate(95.410156 0)"/>
      </g>
     </g>
    </g>
    <g id="ytick_9">
     <g id="line2d_27">
      <path d="M 54.096563 24.597656 
L 1009.19952 24.597656 
" clip-path="url(#p081e157070)" style="fill: none; stroke: #b0b0b0; stroke-opacity: 0.3; stroke-width: 0.8; stroke-linecap: square"/>
     </g>
     <g id="line2d_28">
      <g>
       <use xlink:href="#m3b97ab7e92" x="54.096563" y="24.597656" style="stroke: #000000; stroke-width: 0.8"/>
      </g>
     </g>
     <g id="text_19">
      <!-- 0.4 -->
      <g transform="translate(31.193438 28.396875) scale(0.1 -0.1)">
       <use xlink:href="#DejaVuSans-30"/>
       <use xlink:href="#DejaVuSans-2e" transform="translate(63.623047 0)"/>
       <use xlink:href="#DejaVuSans-34" transform="translate(95.410156 0)"/>
      </g>
     </g>
    </g>
    <g id="text_20">
     <!-- r(Δ co-mate S, Δ focal S) -->
     <g style="fill: #3a3540" transform="translate(16.318125 323.246401) rotate(-90) scale(0.12 -0.12)">
      <defs>
       <path id="DejaVuSerif-394" d="M 4350 0 
L 244 0 
L 2034 4666 
L 2559 4666 
L 4350 0 
z
M 3506 331 
L 2138 3909 
L 763 331 
L 3506 331 
z
" transform="scale(0.015625)"/>
       <path id="DejaVuSerif-6d" d="M 3316 2675 
Q 3481 3041 3739 3227 
Q 3997 3413 4341 3413 
Q 4863 3413 5119 3089 
Q 5375 2766 5375 2113 
L 5375 331 
L 5894 331 
L 5894 0 
L 4300 0 
L 4300 331 
L 4800 331 
L 4800 2047 
Q 4800 2556 4650 2772 
Q 4500 2988 4153 2988 
Q 3769 2988 3567 2697 
Q 3366 2406 3366 1850 
L 3366 331 
L 3866 331 
L 3866 0 
L 2291 0 
L 2291 331 
L 2791 331 
L 2791 2069 
Q 2791 2566 2641 2777 
Q 2491 2988 2144 2988 
Q 1759 2988 1557 2697 
Q 1356 2406 1356 1850 
L 1356 331 
L 1856 331 
L 1856 0 
L 263 0 
L 263 331 
L 781 331 
L 781 2994 
L 231 2994 
L 231 3322 
L 1356 3322 
L 1356 2731 
Q 1516 3063 1762 3238 
Q 2009 3413 2322 3413 
Q 2709 3413 2968 3220 
Q 3228 3028 3316 2675 
z
" transform="scale(0.015625)"/>
       <path id="DejaVuSerif-2c" d="M 231 -622 
Q 525 -406 662 -114 
Q 800 178 800 594 
L 800 709 
L 1416 709 
Q 1391 175 1164 -208 
Q 938 -591 481 -872 
L 231 -622 
z
" transform="scale(0.015625)"/>
       <path id="DejaVuSerif-66" d="M 2753 4078 
L 2450 4078 
Q 2447 4313 2317 4434 
Q 2188 4556 1941 4556 
Q 1619 4556 1487 4379 
Q 1356 4203 1356 3750 
L 1356 3322 
L 2284 3322 
L 2284 2988 
L 1356 2988 
L 1356 331 
L 2094 331 
L 2094 0 
L 231 0 
L 231 331 
L 781 331 
L 781 2988 
L 231 2988 
L 231 3322 
L 781 3322 
L 781 3738 
Q 781 4294 1070 4578 
Q 1359 4863 1919 4863 
Q 2128 4863 2337 4825 
Q 2547 4788 2753 4709 
L 2753 4078 
z
" transform="scale(0.015625)"/>
      </defs>
      <use xlink:href="#DejaVuSerif-72"/>
      <use xlink:href="#DejaVuSerif-28" transform="translate(47.802734 0)"/>
      <use xlink:href="#DejaVuSerif-394" transform="translate(86.816406 0)"/>
      <use xlink:href="#DejaVuSerif-20" transform="translate(159.033203 0)"/>
      <use xlink:href="#DejaVuSerif-63" transform="translate(190.820312 0)"/>
      <use xlink:href="#DejaVuSerif-6f" transform="translate(246.826172 0)"/>
      <use xlink:href="#DejaVuSerif-2d" transform="translate(307.03125 0)"/>
      <use xlink:href="#DejaVuSerif-6d" transform="translate(340.820312 0)"/>
      <use xlink:href="#DejaVuSerif-61" transform="translate(435.644531 0)"/>
      <use xlink:href="#DejaVuSerif-74" transform="translate(495.263672 0)"/>
      <use xlink:href="#DejaVuSerif-65" transform="translate(535.449219 0)"/>
      <use xlink:href="#DejaVuSerif-20" transform="translate(594.628906 0)"/>
      <use xlink:href="#DejaVuSerif-53" transform="translate(626.416016 0)"/>
      <use xlink:href="#DejaVuSerif-2c" transform="translate(691.296875 0)"/>
      <use xlink:href="#DejaVuSerif-20" transform="translate(723.083984 0)"/>
      <use xlink:href="#DejaVuSerif-394" transform="translate(754.871094 0)"/>
      <use xlink:href="#DejaVuSerif-20" transform="translate(827.087891 0)"/>
      <use xlink:href="#DejaVuSerif-66" transform="translate(858.875 0)"/>
      <use xlink:href="#DejaVuSerif-6f" transform="translate(895.886719 0)"/>
      <use xlink:href="#DejaVuSerif-63" transform="translate(956.091797 0)"/>
      <use xlink:href="#DejaVuSerif-61" transform="translate(1012.097656 0)"/>
      <use xlink:href="#DejaVuSerif-6c" transform="translate(1071.716797 0)"/>
      <use xlink:href="#DejaVuSerif-20" transform="translate(1103.699219 0)"/>
      <use xlink:href="#DejaVuSerif-53" transform="translate(1135.486328 0)"/>
      <use xlink:href="#DejaVuSerif-29" transform="translate(1203.992188 0)"/>
     </g>
    </g>
   </g>
   <g id="line2d_29">
    <path d="M 97.510333 307.43782 
L 329.050444 101.439889 
L 531.648041 372.041368 
L 734.245638 226.812214 
L 965.785749 102.207618 
" clip-path="url(#p081e157070)" style="fill: none; stroke: #0d0887; stroke-opacity: 0.9; stroke-width: 2.5; stroke-linecap: square"/>
    <defs>
     <path id="mbdad419b54" d="M 0 4.5 
C 1.193414 4.5 2.338109 4.025852 3.181981 3.181981 
C 4.025852 2.338109 4.5 1.193414 4.5 0 
C 4.5 -1.193414 4.025852 -2.338109 3.181981 -3.181981 
C 2.338109 -4.025852 1.193414 -4.5 0 -4.5 
C -1.193414 -4.5 -2.338109 -4.025852 -3.181981 -3.181981 
C -4.025852 -2.338109 -4.5 -1.193414 -4.5 0 
C -4.5 1.193414 -4.025852 2.338109 -3.181981 3.181981 
C -2.338109 4.025852 -1.193414 4.5 0 4.5 
z
" style="stroke: #0d0887; stroke-opacity: 0.9"/>
    </defs>
    <g clip-path="url(#p081e157070)">
     <use xlink:href="#mbdad419b54" x="97.510333" y="307.43782" style="fill: #0d0887; fill-opacity: 0.9; stroke: #0d0887; stroke-opacity: 0.9"/>
     <use xlink:href="#mbdad419b54" x="329.050444" y="101.439889" style="fill: #0d0887; fill-opacity: 0.9; stroke: #0d0887; stroke-opacity: 0.9"/>
     <use xlink:href="#mbdad419b54" x="531.648041" y="372.041368" style="fill: #0d0887; fill-opacity: 0.9; stroke: #0d0887; stroke-opacity: 0.9"/>
     <use xlink:href="#mbdad419b54" x="734.245638" y="226.812214" style="fill: #0d0887; fill-opacity: 0.9; stroke: #0d0887; stroke-opacity: 0.9"/>
     <use xlink:href="#mbdad419b54" x="965.785749" y="102.207618" style="fill: #0d0887; fill-opacity: 0.9; stroke: #0d0887; stroke-opacity: 0.9"/>
    </g>
   </g>
   <g id="line2d_30">
    <path d="M 97.510333 399.376695 
L 329.050444 229.07165 
L 531.648041 197.336164 
L 734.245638 153.271729 
L 965.785749 152.512481 
" clip-path="url(#p081e157070)" style="fill: none; stroke: #46039f; stroke-opacity: 0.9; stroke-width: 2.5; stroke-linecap: square"/>
    <defs>
     <path id="me05c4a2d32" d="M 0 4.5 
C 1.193414 4.5 2.338109 4.025852 3.181981 3.181981 
C 4.025852 2.338109 4.5 1.193414 4.5 0 
C 4.5 -1.193414 4.025852 -2.338109 3.181981 -3.181981 
C 2.338109 -4.025852 1.193414 -4.5 0 -4.5 
C -1.193414 -4.5 -2.338109 -4.025852 -3.181981 -3.181981 
C -4.025852 -2.338109 -4.5 -1.193414 -4.5 0 
C -4.5 1.193414 -4.025852 2.338109 -3.181981 3.181981 
C -2.338109 4.025852 -1.193414 4.5 0 4.5 
z
" style="stroke: #46039f; stroke-opacity: 0.9"/>
    </defs>
    <g clip-path="url(#p081e157070)">
     <use xlink:href="#me05c4a2d32" x="97.510333" y="399.376695" style="fill: #46039f; fill-opacity: 0.9; stroke: #46039f; stroke-opacity: 0.9"/>
     <use xlink:href="#me05c4a2d32" x="329.050444" y="229.07165" style="fill: #46039f; fill-opacity: 0.9; stroke: #46039f; stroke-opacity: 0.9"/>
     <use xlink:href="#me05c4a2d32" x="531.648041" y="197.336164" style="fill: #46039f; fill-opacity: 0.9; stroke: #46039f; stroke-opacity: 0.9"/>
     <use xlink:href="#me05c4a2d32" x="734.245638" y="153.271729" style="fill: #46039f; fill-opacity: 0.9; stroke: #46039f; stroke-opacity: 0.9"/>
     <use xlink:href="#me05c4a2d32" x="965.785749" y="152.512481" style="fill: #46039f; fill-opacity: 0.9; stroke: #46039f; stroke-opacity: 0.9"/>
    </g>
   </g>
   <g id="line2d_31">
    <path d="M 97.510333 323.962609 
L 329.050444 203.700037 
L 531.648041 183.226623 
L 734.245638 416.677936 
L 965.785749 246.520644 
" clip-path="url(#p081e157070)" style="fill: none; stroke: #7201a8; stroke-opacity: 0.9; stroke-width: 2.5; stroke-linecap: square"/>
    <defs>
     <path id="m259513694b" d="M 0 4.5 
C 1.193414 4.5 2.338109 4.025852 3.181981 3.181981 
C 4.025852 2.338109 4.5 1.193414 4.5 0 
C 4.5 -1.193414 4.025852 -2.338109 3.181981 -3.181981 
C 2.338109 -4.025852 1.193414 -4.5 0 -4.5 
C -1.193414 -4.5 -2.338109 -4.025852 -3.181981 -3.181981 
C -4.025852 -2.338109 -4.5 -1.193414 -4.5 0 
C -4.5 1.193414 -4.025852 2.338109 -3.181981 3.181981 
C -2.338109 4.025852 -1.193414 4.5 0 4.5 
z
" style="stroke: #7201a8; stroke-opacity: 0.9"/>
    </defs>
    <g clip-path="url(#p081e157070)">
     <use xlink:href="#m259513694b" x="97.510333" y="323.962609" style="fill: #7201a8; fill-opacity: 0.9; stroke: #7201a8; stroke-opacity: 0.9"/>
     <use xlink:href="#m259513694b" x="329.050444" y="203.700037" style="fill: #7201a8; fill-opacity: 0.9; stroke: #7201a8; stroke-opacity: 0.9"/>
     <use xlink:href="#m259513694b" x="531.648041" y="183.226623" style="fill: #7201a8; fill-opacity: 0.9; stroke: #7201a8; stroke-opacity: 0.9"/>
     <use xlink:href="#m259513694b" x="734.245638" y="416.677936" style="fill: #7201a8; fill-opacity: 0.9; stroke: #7201a8; stroke-opacity: 0.9"/>
     <use xlink:href="#m259513694b" x="965.785749" y="246.520644" style="fill: #7201a8; fill-opacity: 0.9; stroke: #7201a8; stroke-opacity: 0.9"/>
    </g>
   </g>
   <g id="line2d_32">
    <path d="M 97.510333 324.795866 
L 329.050444 270.057413 
L 531.648041 309.623119 
L 734.245638 315.294712 
L 965.785749 265.096561 
" clip-path="url(#p081e157070)" style="fill: none; stroke: #9c179e; stroke-opacity: 0.9; stroke-width: 2.5; stroke-linecap: square"/>
    <defs>
     <path id="maffbdb034c" d="M 0 4.5 
C 1.193414 4.5 2.338109 4.025852 3.181981 3.181981 
C 4.025852 2.338109 4.5 1.193414 4.5 0 
C 4.5 -1.193414 4.025852 -2.338109 3.181981 -3.181981 
C 2.338109 -4.025852 1.193414 -4.5 0 -4.5 
C -1.193414 -4.5 -2.338109 -4.025852 -3.181981 -3.181981 
C -4.025852 -2.338109 -4.5 -1.193414 -4.5 0 
C -4.5 1.193414 -4.025852 2.338109 -3.181981 3.181981 
C -2.338109 4.025852 -1.193414 4.5 0 4.5 
z
" style="stroke: #9c179e; stroke-opacity: 0.9"/>
    </defs>
    <g clip-path="url(#p081e157070)">
     <use xlink:href="#maffbdb034c" x="97.510333" y="324.795866" style="fill: #9c179e; fill-opacity: 0.9; stroke: #9c179e; stroke-opacity: 0.9"/>
     <use xlink:href="#maffbdb034c" x="329.050444" y="270.057413" style="fill: #9c179e; fill-opacity: 0.9; stroke: #9c179e; stroke-opacity: 0.9"/>
     <use xlink:href="#maffbdb034c" x="531.648041" y="309.623119" style="fill: #9c179e; fill-opacity: 0.9; stroke: #9c179e; stroke-opacity: 0.9"/>
     <use xlink:href="#maffbdb034c" x="734.245638" y="315.294712" style="fill: #9c179e; fill-opacity: 0.9; stroke: #9c179e; stroke-opacity: 0.9"/>
     <use xlink:href="#maffbdb034c" x="965.785749" y="265.096561" style="fill: #9c179e; fill-opacity: 0.9; stroke: #9c179e; stroke-opacity: 0.9"/>
    </g>
   </g>
   <g id="line2d_33">
    <path d="M 97.510333 319.157506 
L 329.050444 256.92205 
L 531.648041 308.27255 
L 734.245638 466.345978 
L 965.785749 269.928091 
" clip-path="url(#p081e157070)" style="fill: none; stroke: #bd3786; stroke-opacity: 0.9; stroke-width: 2.5; stroke-linecap: square"/>
    <defs>
     <path id="m296934cfa2" d="M 0 4.5 
C 1.193414 4.5 2.338109 4.025852 3.181981 3.181981 
C 4.025852 2.338109 4.5 1.193414 4.5 0 
C 4.5 -1.193414 4.025852 -2.338109 3.181981 -3.181981 
C 2.338109 -4.025852 1.193414 -4.5 0 -4.5 
C -1.193414 -4.5 -2.338109 -4.025852 -3.181981 -3.181981 
C -4.025852 -2.338109 -4.5 -1.193414 -4.5 0 
C -4.5 1.193414 -4.025852 2.338109 -3.181981 3.181981 
C -2.338109 4.025852 -1.193414 4.5 0 4.5 
z
" style="stroke: #bd3786; stroke-opacity: 0.9"/>
    </defs>
    <g clip-path="url(#p081e157070)">
     <use xlink:href="#m296934cfa2" x="97.510333" y="319.157506" style="fill: #bd3786; fill-opacity: 0.9; stroke: #bd3786; stroke-opacity: 0.9"/>
     <use xlink:href="#m296934cfa2" x="329.050444" y="256.92205" style="fill: #bd3786; fill-opacity: 0.9; stroke: #bd3786; stroke-opacity: 0.9"/>
     <use xlink:href="#m296934cfa2" x="531.648041" y="308.27255" style="fill: #bd3786; fill-opacity: 0.9; stroke: #bd3786; stroke-opacity: 0.9"/>
     <use xlink:href="#m296934cfa2" x="734.245638" y="466.345978" style="fill: #bd3786; fill-opacity: 0.9; stroke: #bd3786; stroke-opacity: 0.9"/>
     <use xlink:href="#m296934cfa2" x="965.785749" y="269.928091" style="fill: #bd3786; fill-opacity: 0.9; stroke: #bd3786; stroke-opacity: 0.9"/>
    </g>
   </g>
   <g id="line2d_34">
    <path d="M 97.510333 155.119999 
L 329.050444 159.352766 
L 531.648041 93.299853 
L 734.245638 74.002174 
L 965.785749 276.240941 
" clip-path="url(#p081e157070)" style="fill: none; stroke: #d8576b; stroke-opacity: 0.9; stroke-width: 2.5; stroke-linecap: square"/>
    <defs>
     <path id="m0d6cb26124" d="M 0 4.5 
C 1.193414 4.5 2.338109 4.025852 3.181981 3.181981 
C 4.025852 2.338109 4.5 1.193414 4.5 0 
C 4.5 -1.193414 4.025852 -2.338109 3.181981 -3.181981 
C 2.338109 -4.025852 1.193414 -4.5 0 -4.5 
C -1.193414 -4.5 -2.338109 -4.025852 -3.181981 -3.181981 
C -4.025852 -2.338109 -4.5 -1.193414 -4.5 0 
C -4.5 1.193414 -4.025852 2.338109 -3.181981 3.181981 
C -2.338109 4.025852 -1.193414 4.5 0 4.5 
z
" style="stroke: #d8576b; stroke-opacity: 0.9"/>
    </defs>
    <g clip-path="url(#p081e157070)">
     <use xlink:href="#m0d6cb26124" x="97.510333" y="155.119999" style="fill: #d8576b; fill-opacity: 0.9; stroke: #d8576b; stroke-opacity: 0.9"/>
     <use xlink:href="#m0d6cb26124" x="329.050444" y="159.352766" style="fill: #d8576b; fill-opacity: 0.9; stroke: #d8576b; stroke-opacity: 0.9"/>
     <use xlink:href="#m0d6cb26124" x="531.648041" y="93.299853" style="fill: #d8576b; fill-opacity: 0.9; stroke: #d8576b; stroke-opacity: 0.9"/>
     <use xlink:href="#m0d6cb26124" x="734.245638" y="74.002174" style="fill: #d8576b; fill-opacity: 0.9; stroke: #d8576b; stroke-opacity: 0.9"/>
     <use xlink:href="#m0d6cb26124" x="965.785749" y="276.240941" style="fill: #d8576b; fill-opacity: 0.9; stroke: #d8576b; stroke-opacity: 0.9"/>
    </g>
   </g>
   <g id="line2d_35">
    <path d="M 97.510333 209.89831 
L 329.050444 146.160664 
L 531.648041 296.501346 
L 734.245638 226.137019 
L 965.785749 284.898795 
" clip-path="url(#p081e157070)" style="fill: none; stroke: #ed7953; stroke-opacity: 0.9; stroke-width: 2.5; stroke-linecap: square"/>
    <defs>
     <path id="m4bf755fc1c" d="M 0 4.5 
C 1.193414 4.5 2.338109 4.025852 3.181981 3.181981 
C 4.025852 2.338109 4.5 1.193414 4.5 0 
C 4.5 -1.193414 4.025852 -2.338109 3.181981 -3.181981 
C 2.338109 -4.025852 1.193414 -4.5 0 -4.5 
C -1.193414 -4.5 -2.338109 -4.025852 -3.181981 -3.181981 
C -4.025852 -2.338109 -4.5 -1.193414 -4.5 0 
C -4.5 1.193414 -4.025852 2.338109 -3.181981 3.181981 
C -2.338109 4.025852 -1.193414 4.5 0 4.5 
z
" style="stroke: #ed7953; stroke-opacity: 0.9"/>
    </defs>
    <g clip-path="url(#p081e157070)">
     <use xlink:href="#m4bf755fc1c" x="97.510333" y="209.89831" style="fill: #ed7953; fill-opacity: 0.9; stroke: #ed7953; stroke-opacity: 0.9"/>
     <use xlink:href="#m4bf755fc1c" x="329.050444" y="146.160664" style="fill: #ed7953; fill-opacity: 0.9; stroke: #ed7953; stroke-opacity: 0.9"/>
     <use xlink:href="#m4bf755fc1c" x="531.648041" y="296.501346" style="fill: #ed7953; fill-opacity: 0.9; stroke: #ed7953; stroke-opacity: 0.9"/>
     <use xlink:href="#m4bf755fc1c" x="734.245638" y="226.137019" style="fill: #ed7953; fill-opacity: 0.9; stroke: #ed7953; stroke-opacity: 0.9"/>
     <use xlink:href="#m4bf755fc1c" x="965.785749" y="284.898795" style="fill: #ed7953; fill-opacity: 0.9; stroke: #ed7953; stroke-opacity: 0.9"/>
    </g>
   </g>
   <g id="line2d_36">
    <path d="M 97.510333 188.156913 
L 329.050444 140.459187 
L 531.648041 123.152422 
L 734.245638 191.190416 
L 965.785749 193.331833 
" clip-path="url(#p081e157070)" style="fill: none; stroke: #fb9f3a; stroke-opacity: 0.9; stroke-width: 2.5; stroke-linecap: square"/>
    <defs>
     <path id="me083d6e175" d="M 0 4.5 
C 1.193414 4.5 2.338109 4.025852 3.181981 3.181981 
C 4.025852 2.338109 4.5 1.193414 4.5 0 
C 4.5 -1.193414 4.025852 -2.338109 3.181981 -3.181981 
C 2.338109 -4.025852 1.193414 -4.5 0 -4.5 
C -1.193414 -4.5 -2.338109 -4.025852 -3.181981 -3.181981 
C -4.025852 -2.338109 -4.5 -1.193414 -4.5 0 
C -4.5 1.193414 -4.025852 2.338109 -3.181981 3.181981 
C -2.338109 4.025852 -1.193414 4.5 0 4.5 
z
" style="stroke: #fb9f3a; stroke-opacity: 0.9"/>
    </defs>
    <g clip-path="url(#p081e157070)">
     <use xlink:href="#me083d6e175" x="97.510333" y="188.156913" style="fill: #fb9f3a; fill-opacity: 0.9; stroke: #fb9f3a; stroke-opacity: 0.9"/>
     <use xlink:href="#me083d6e175" x="329.050444" y="140.459187" style="fill: #fb9f3a; fill-opacity: 0.9; stroke: #fb9f3a; stroke-opacity: 0.9"/>
     <use xlink:href="#me083d6e175" x="531.648041" y="123.152422" style="fill: #fb9f3a; fill-opacity: 0.9; stroke: #fb9f3a; stroke-opacity: 0.9"/>
     <use xlink:href="#me083d6e175" x="734.245638" y="191.190416" style="fill: #fb9f3a; fill-opacity: 0.9; stroke: #fb9f3a; stroke-opacity: 0.9"/>
     <use xlink:href="#me083d6e175" x="965.785749" y="193.331833" style="fill: #fb9f3a; fill-opacity: 0.9; stroke: #fb9f3a; stroke-opacity: 0.9"/>
    </g>
   </g>
   <g id="line2d_37">
    <path d="M 97.510333 307.55021 
L 329.050444 47.050295 
L 531.648041 118.871019 
L 734.245638 328.351736 
L 965.785749 250.021231 
" clip-path="url(#p081e157070)" style="fill: none; stroke: #fdca26; stroke-opacity: 0.9; stroke-width: 2.5; stroke-linecap: square"/>
    <defs>
     <path id="me685ee6cf6" d="M 0 4.5 
C 1.193414 4.5 2.338109 4.025852 3.181981 3.181981 
C 4.025852 2.338109 4.5 1.193414 4.5 0 
C 4.5 -1.193414 4.025852 -2.338109 3.181981 -3.181981 
C 2.338109 -4.025852 1.193414 -4.5 0 -4.5 
C -1.193414 -4.5 -2.338109 -4.025852 -3.181981 -3.181981 
C -4.025852 -2.338109 -4.5 -1.193414 -4.5 0 
C -4.5 1.193414 -4.025852 2.338109 -3.181981 3.181981 
C -2.338109 4.025852 -1.193414 4.5 0 4.5 
z
" style="stroke: #fdca26; stroke-opacity: 0.9"/>
    </defs>
    <g clip-path="url(#p081e157070)">
     <use xlink:href="#me685ee6cf6" x="97.510333" y="307.55021" style="fill: #fdca26; fill-opacity: 0.9; stroke: #fdca26; stroke-opacity: 0.9"/>
     <use xlink:href="#me685ee6cf6" x="329.050444" y="47.050295" style="fill: #fdca26; fill-opacity: 0.9; stroke: #fdca26; stroke-opacity: 0.9"/>
     <use xlink:href="#me685ee6cf6" x="531.648041" y="118.871019" style="fill: #fdca26; fill-opacity: 0.9; stroke: #fdca26; stroke-opacity: 0.9"/>
     <use xlink:href="#me685ee6cf6" x="734.245638" y="328.351736" style="fill: #fdca26; fill-opacity: 0.9; stroke: #fdca26; stroke-opacity: 0.9"/>
     <use xlink:href="#me685ee6cf6" x="965.785749" y="250.021231" style="fill: #fdca26; fill-opacity: 0.9; stroke: #fdca26; stroke-opacity: 0.9"/>
    </g>
   </g>
   <g id="line2d_38">
    <path d="M 97.510333 244.938768 
L 329.050444 298.94199 
L 531.648041 221.609774 
L 734.245638 442.826496 
L 965.785749 193.847535 
" clip-path="url(#p081e157070)" style="fill: none; stroke: #f0f921; stroke-opacity: 0.9; stroke-width: 2.5; stroke-linecap: square"/>
    <defs>
     <path id="m57987897f1" d="M 0 4.5 
C 1.193414 4.5 2.338109 4.025852 3.181981 3.181981 
C 4.025852 2.338109 4.5 1.193414 4.5 0 
C 4.5 -1.193414 4.025852 -2.338109 3.181981 -3.181981 
C 2.338109 -4.025852 1.193414 -4.5 0 -4.5 
C -1.193414 -4.5 -2.338109 -4.025852 -3.181981 -3.181981 
C -4.025852 -2.338109 -4.5 -1.193414 -4.5 0 
C -4.5 1.193414 -4.025852 2.338109 -3.181981 3.181981 
C -2.338109 4.025852 -1.193414 4.5 0 4.5 
z
" style="stroke: #f0f921; stroke-opacity: 0.9"/>
    </defs>
    <g clip-path="url(#p081e157070)">
     <use xlink:href="#m57987897f1" x="97.510333" y="244.938768" style="fill: #f0f921; fill-opacity: 0.9; stroke: #f0f921; stroke-opacity: 0.9"/>
     <use xlink:href="#m57987897f1" x="329.050444" y="298.94199" style="fill: #f0f921; fill-opacity: 0.9; stroke: #f0f921; stroke-opacity: 0.9"/>
     <use xlink:href="#m57987897f1" x="531.648041" y="221.609774" style="fill: #f0f921; fill-opacity: 0.9; stroke: #f0f921; stroke-opacity: 0.9"/>
     <use xlink:href="#m57987897f1" x="734.245638" y="442.826496" style="fill: #f0f921; fill-opacity: 0.9; stroke: #f0f921; stroke-opacity: 0.9"/>
     <use xlink:href="#m57987897f1" x="965.785749" y="193.847535" style="fill: #f0f921; fill-opacity: 0.9; stroke: #f0f921; stroke-opacity: 0.9"/>
    </g>
   </g>
   <g id="patch_3">
    <path d="M 54.096563 472.73702 
L 54.096563 24.597656 
" style="fill: none; stroke: #000000; stroke-width: 0.8; stroke-linejoin: miter; stroke-linecap: square"/>
   </g>
   <g id="patch_4">
    <path d="M 54.096563 472.73702 
L 1009.19952 472.73702 
" style="fill: none; stroke: #000000; stroke-width: 0.8; stroke-linejoin: miter; stroke-linecap: square"/>
   </g>
   <g id="text_21">
    <!-- Lineup-Mate Effect Varies With Player Baseline  ·  Sign-Flip Reveals Phase 4 Architecture -->
    <g style="fill: #3a3540" transform="translate(154.52226 18.597656) scale(0.15 -0.15)">
     <defs>
      <path id="DejaVuSerif-Bold-4c" d="M 300 0 
L 300 378 
L 897 378 
L 897 4288 
L 300 4288 
L 300 4666 
L 2700 4666 
L 2700 4288 
L 2100 4288 
L 2100 428 
L 3938 428 
L 3938 1166 
L 4359 1166 
L 4359 0 
L 300 0 
z
" transform="scale(0.015625)"/>
      <path id="DejaVuSerif-Bold-69" d="M 588 4263 
Q 588 4516 763 4689 
Q 938 4863 1191 4863 
Q 1438 4863 1611 4689 
Q 1784 4516 1784 4263 
Q 1784 4016 1611 3842 
Q 1438 3669 1191 3669 
Q 938 3669 763 3841 
Q 588 4013 588 4263 
z
M 1797 378 
L 2272 378 
L 2272 0 
L 219 0 
L 219 378 
L 691 378 
L 691 2944 
L 219 2944 
L 219 3322 
L 1797 3322 
L 1797 378 
z
" transform="scale(0.015625)"/>
      <path id="DejaVuSerif-Bold-6e" d="M 219 0 
L 219 378 
L 691 378 
L 691 2944 
L 219 2944 
L 219 3322 
L 1797 3322 
L 1797 2853 
Q 1997 3150 2253 3281 
Q 2509 3413 2900 3413 
Q 3459 3413 3745 3083 
Q 4031 2753 4031 2113 
L 4031 378 
L 4506 378 
L 4506 0 
L 2522 0 
L 2522 378 
L 2925 378 
L 2925 2144 
Q 2925 2566 2817 2730 
Q 2709 2894 2444 2894 
Q 2109 2894 1953 2648 
Q 1797 2403 1797 1869 
L 1797 378 
L 2203 378 
L 2203 0 
L 219 0 
z
" transform="scale(0.015625)"/>
      <path id="DejaVuSerif-Bold-65" d="M 2566 1875 
Q 2566 2531 2444 2795 
Q 2322 3059 2028 3059 
Q 1744 3059 1620 2800 
Q 1497 2541 1497 1931 
L 1497 1875 
L 2566 1875 
z
M 3781 1503 
L 1497 1503 
L 1497 1478 
Q 1497 834 1690 548 
Q 1884 263 2316 263 
Q 2675 263 2897 453 
Q 3119 644 3181 1006 
L 3700 1006 
Q 3566 441 3166 175 
Q 2766 -91 2047 -91 
Q 1184 -91 723 364 
Q 263 819 263 1663 
Q 263 2488 734 2950 
Q 1206 3413 2047 3413 
Q 2872 3413 3312 2927 
Q 3753 2441 3781 1503 
z
" transform="scale(0.015625)"/>
      <path id="DejaVuSerif-Bold-75" d="M 3963 3322 
L 3963 378 
L 4434 378 
L 4434 0 
L 2853 0 
L 2853 469 
Q 2656 172 2400 40 
Q 2144 -91 1753 -91 
Q 1194 -91 908 239 
Q 622 569 622 1209 
L 622 2944 
L 147 2944 
L 147 3322 
L 1728 3322 
L 1728 1381 
Q 1728 763 1831 595 
Q 1934 428 2209 428 
Q 2544 428 2698 675 
Q 2853 922 2853 1459 
L 2853 2944 
L 2450 2944 
L 2450 3322 
L 3963 3322 
z
" transform="scale(0.015625)"/>
      <path id="DejaVuSerif-Bold-70" d="M 1728 1825 
L 1728 1497 
Q 1728 916 1876 656 
Q 2025 397 2356 397 
Q 2697 397 2836 672 
Q 2975 947 2975 1663 
Q 2975 2378 2836 2651 
Q 2697 2925 2356 2925 
Q 2025 2925 1876 2665 
Q 1728 2406 1728 1825 
z
M 622 2944 
L 147 2944 
L 147 3322 
L 1728 3322 
L 1728 2900 
Q 1869 3159 2106 3286 
Q 2344 3413 2694 3413 
Q 3403 3413 3811 2945 
Q 4219 2478 4219 1663 
Q 4219 847 3811 378 
Q 3403 -91 2694 -91 
Q 2344 -91 2106 36 
Q 1869 163 1728 422 
L 1728 -953 
L 2241 -953 
L 2241 -1331 
L 147 -1331 
L 147 -953 
L 622 -953 
L 622 2944 
z
" transform="scale(0.015625)"/>
      <path id="DejaVuSerif-Bold-2d" d="M 347 2138 
L 2309 2138 
L 2309 1294 
L 347 1294 
L 347 2138 
z
" transform="scale(0.015625)"/>
      <path id="DejaVuSerif-Bold-4d" d="M 269 0 
L 269 378 
L 863 378 
L 863 4288 
L 269 4288 
L 269 4666 
L 2194 4666 
L 3525 1672 
L 4863 4666 
L 6784 4666 
L 6784 4288 
L 6188 4288 
L 6188 378 
L 6784 378 
L 6784 0 
L 4384 0 
L 4384 378 
L 4978 378 
L 4978 3938 
L 3531 684 
L 2741 684 
L 1300 3938 
L 1300 378 
L 1894 378 
L 1894 0 
L 269 0 
z
" transform="scale(0.015625)"/>
      <path id="DejaVuSerif-Bold-61" d="M 3525 2041 
L 3525 378 
L 4000 378 
L 4000 0 
L 2419 0 
L 2419 422 
Q 2200 159 1931 34 
Q 1663 -91 1319 -91 
Q 809 -91 536 182 
Q 263 456 263 966 
Q 263 1525 655 1803 
Q 1047 2081 1838 2081 
L 2419 2081 
L 2419 2278 
Q 2419 2681 2228 2873 
Q 2038 3066 1638 3066 
Q 1306 3066 1126 2930 
Q 947 2794 872 2484 
L 519 2484 
L 519 3200 
Q 816 3306 1134 3359 
Q 1453 3413 1806 3413 
Q 2697 3413 3111 3081 
Q 3525 2750 3525 2041 
z
M 2419 1044 
L 2419 1709 
L 2003 1709 
Q 1694 1709 1528 1540 
Q 1363 1372 1363 1056 
Q 1363 741 1483 584 
Q 1603 428 1850 428 
Q 2106 428 2262 597 
Q 2419 766 2419 1044 
z
" transform="scale(0.015625)"/>
      <path id="DejaVuSerif-Bold-74" d="M 634 2944 
L 153 2944 
L 153 3322 
L 634 3322 
L 634 4353 
L 1741 4353 
L 1741 3322 
L 2663 3322 
L 2663 2944 
L 1741 2944 
L 1741 909 
Q 1741 475 1809 369 
Q 1878 263 2059 263 
Q 2259 263 2356 397 
Q 2453 531 2459 813 
L 2925 813 
Q 2897 313 2651 111 
Q 2406 -91 1806 -91 
Q 1122 -91 878 123 
Q 634 338 634 909 
L 634 2944 
z
" transform="scale(0.015625)"/>
      <path id="DejaVuSerif-Bold-20" transform="scale(0.015625)"/>
      <path id="DejaVuSerif-Bold-45" d="M 300 0 
L 300 378 
L 897 378 
L 897 4288 
L 300 4288 
L 300 4666 
L 4494 4666 
L 4494 3566 
L 4063 3566 
L 4063 4238 
L 2100 4238 
L 2100 2741 
L 3322 2741 
L 3322 3334 
L 3750 3334 
L 3750 1722 
L 3322 1722 
L 3322 2316 
L 2100 2316 
L 2100 428 
L 4122 428 
L 4122 1100 
L 4550 1100 
L 4550 0 
L 300 0 
z
" transform="scale(0.015625)"/>
      <path id="DejaVuSerif-Bold-66" d="M 3097 4031 
L 2747 4031 
Q 2722 4275 2605 4394 
Q 2488 4513 2272 4513 
Q 2022 4513 1909 4333 
Q 1797 4153 1797 3750 
L 1797 3322 
L 2631 3322 
L 2631 2944 
L 1797 2944 
L 1797 378 
L 2438 378 
L 2438 0 
L 219 0 
L 219 378 
L 691 378 
L 691 2944 
L 197 2944 
L 197 3322 
L 691 3322 
L 691 3738 
Q 691 4291 1044 4577 
Q 1397 4863 2081 4863 
Q 2347 4863 2600 4833 
Q 2853 4803 3097 4744 
L 3097 4031 
z
" transform="scale(0.015625)"/>
      <path id="DejaVuSerif-Bold-63" d="M 3609 1038 
Q 3491 469 3123 189 
Q 2756 -91 2125 -91 
Q 1238 -91 750 368 
Q 263 828 263 1663 
Q 263 2488 744 2950 
Q 1225 3413 2081 3413 
Q 2428 3413 2781 3347 
Q 3134 3281 3500 3150 
L 3500 2228 
L 3150 2228 
Q 3100 2650 2903 2854 
Q 2706 3059 2350 3059 
Q 1888 3059 1692 2746 
Q 1497 2434 1497 1663 
Q 1497 909 1687 586 
Q 1878 263 2309 263 
Q 2644 263 2845 463 
Q 3047 663 3091 1038 
L 3609 1038 
z
" transform="scale(0.015625)"/>
      <path id="DejaVuSerif-Bold-56" d="M 5056 4666 
L 5056 4288 
L 4666 4288 
L 2906 0 
L 2163 0 
L 403 4288 
L -38 4288 
L -38 4666 
L 2150 4666 
L 2150 4288 
L 1697 4288 
L 2956 1197 
L 4225 4288 
L 3669 4288 
L 3669 4666 
L 5056 4666 
z
" transform="scale(0.015625)"/>
      <path id="DejaVuSerif-Bold-72" d="M 3438 3359 
L 3438 2369 
L 3084 2369 
Q 3066 2634 2941 2764 
Q 2816 2894 2578 2894 
Q 2216 2894 2006 2575 
Q 1797 2256 1797 1691 
L 1797 378 
L 2400 378 
L 2400 0 
L 219 0 
L 219 378 
L 691 378 
L 691 2944 
L 184 2944 
L 184 3322 
L 1797 3322 
L 1797 2731 
Q 1959 3078 2226 3245 
Q 2494 3413 2881 3413 
Q 2978 3413 3117 3398 
Q 3256 3384 3438 3359 
z
" transform="scale(0.015625)"/>
      <path id="DejaVuSerif-Bold-73" d="M 300 97 
L 300 1025 
L 653 1025 
Q 697 653 931 458 
Q 1166 263 1569 263 
Q 1906 263 2086 380 
Q 2266 497 2266 716 
Q 2266 916 2152 1025 
Q 2038 1134 1709 1216 
L 1253 1331 
Q 738 1459 506 1698 
Q 275 1938 275 2344 
Q 275 2884 650 3148 
Q 1025 3413 1806 3413 
Q 2100 3413 2433 3364 
Q 2766 3316 3169 3213 
L 3169 2375 
L 2816 2375 
Q 2788 2716 2573 2887 
Q 2359 3059 1959 3059 
Q 1622 3059 1448 2951 
Q 1275 2844 1275 2638 
Q 1275 2469 1375 2372 
Q 1475 2275 1734 2209 
L 2188 2094 
Q 2841 1928 3091 1684 
Q 3341 1441 3341 1006 
Q 3341 444 2939 176 
Q 2538 -91 1691 -91 
Q 1381 -91 1034 -44 
Q 688 3 300 97 
z
" transform="scale(0.015625)"/>
      <path id="DejaVuSerif-Bold-57" d="M 5453 0 
L 4647 0 
L 3591 3397 
L 2534 0 
L 1728 0 
L 397 4288 
L -56 4288 
L -56 4666 
L 2156 4666 
L 2156 4288 
L 1656 4288 
L 2547 1422 
L 3553 4666 
L 4441 4666 
L 5466 1369 
L 6375 4288 
L 5819 4288 
L 5819 4666 
L 7263 4666 
L 7263 4288 
L 6784 4288 
L 5453 0 
z
" transform="scale(0.015625)"/>
      <path id="DejaVuSerif-Bold-68" d="M 219 0 
L 219 378 
L 691 378 
L 691 4488 
L 197 4488 
L 197 4863 
L 1797 4863 
L 1797 2853 
Q 1997 3150 2253 3281 
Q 2509 3413 2900 3413 
Q 3459 3413 3745 3083 
Q 4031 2753 4031 2113 
L 4031 378 
L 4506 378 
L 4506 0 
L 2522 0 
L 2522 378 
L 2925 378 
L 2925 2144 
Q 2925 2566 2817 2730 
Q 2709 2894 2444 2894 
Q 2109 2894 1953 2648 
Q 1797 2403 1797 1869 
L 1797 378 
L 2203 378 
L 2203 0 
L 219 0 
z
" transform="scale(0.015625)"/>
      <path id="DejaVuSerif-Bold-50" d="M 300 0 
L 300 378 
L 897 378 
L 897 4288 
L 300 4288 
L 300 4666 
L 2956 4666 
Q 3734 4666 4193 4295 
Q 4653 3925 4653 3303 
Q 4653 2678 4192 2304 
Q 3731 1931 2956 1931 
L 2100 1931 
L 2100 378 
L 2853 378 
L 2853 0 
L 300 0 
z
M 2100 2309 
L 2450 2309 
Q 2856 2309 3098 2579 
Q 3341 2850 3341 3303 
Q 3341 3753 3100 4020 
Q 2859 4288 2450 4288 
L 2100 4288 
L 2100 2309 
z
" transform="scale(0.015625)"/>
      <path id="DejaVuSerif-Bold-6c" d="M 1797 378 
L 2272 378 
L 2272 0 
L 219 0 
L 219 378 
L 691 378 
L 691 4488 
L 219 4488 
L 219 4863 
L 1797 4863 
L 1797 378 
z
" transform="scale(0.015625)"/>
      <path id="DejaVuSerif-Bold-79" d="M 1997 -750 
Q 1847 -1116 1634 -1269 
Q 1422 -1422 1063 -1422 
Q 909 -1422 721 -1387 
Q 534 -1353 313 -1288 
L 313 -594 
L 666 -597 
Q 675 -838 779 -953 
Q 884 -1069 1094 -1069 
Q 1297 -1069 1422 -958 
Q 1547 -847 1672 -538 
L 1722 -422 
L 275 2944 
L -84 2944 
L -84 3322 
L 1831 3322 
L 1831 2944 
L 1434 2944 
L 2278 978 
L 3066 2944 
L 2625 2944 
L 2625 3322 
L 3872 3322 
L 3872 2944 
L 3469 2944 
L 1997 -750 
z
" transform="scale(0.015625)"/>
      <path id="DejaVuSerif-Bold-42" d="M 300 0 
L 300 378 
L 897 378 
L 897 4288 
L 300 4288 
L 300 4666 
L 3066 4666 
Q 3919 4666 4347 4378 
Q 4775 4091 4775 3513 
Q 4775 3097 4479 2853 
Q 4184 2609 3603 2547 
Q 4306 2481 4681 2172 
Q 5056 1863 5056 1350 
Q 5056 656 4532 328 
Q 4009 0 2894 0 
L 300 0 
z
M 2100 2719 
L 2509 2719 
Q 3047 2719 3306 2914 
Q 3566 3109 3566 3513 
Q 3566 3919 3314 4103 
Q 3063 4288 2509 4288 
L 2100 4288 
L 2100 2719 
z
M 2100 378 
L 2547 378 
Q 3144 378 3431 615 
Q 3719 853 3719 1350 
Q 3719 1850 3428 2097 
Q 3138 2344 2547 2344 
L 2100 2344 
L 2100 378 
z
" transform="scale(0.015625)"/>
      <path id="DejaVuSerif-Bold-b7" d="M 519 2222 
Q 519 2466 694 2641 
Q 869 2816 1113 2816 
Q 1359 2816 1534 2641 
Q 1709 2466 1709 2222 
Q 1709 1978 1534 1804 
Q 1359 1631 1113 1631 
Q 869 1631 694 1804 
Q 519 1978 519 2222 
z
" transform="scale(0.015625)"/>
      <path id="DejaVuSerif-Bold-53" d="M 494 225 
L 494 1331 
L 891 1331 
Q 981 806 1318 547 
Q 1656 288 2253 288 
Q 2738 288 2991 472 
Q 3244 656 3244 1013 
Q 3244 1294 3072 1450 
Q 2900 1606 2363 1741 
L 1663 1913 
Q 978 2088 700 2398 
Q 422 2709 422 3284 
Q 422 3978 883 4364 
Q 1344 4750 2175 4750 
Q 2584 4750 3026 4681 
Q 3469 4613 3944 4475 
L 3944 3444 
L 3547 3444 
Q 3456 3925 3150 4148 
Q 2844 4372 2278 4372 
Q 1816 4372 1580 4211 
Q 1344 4050 1344 3731 
Q 1344 3441 1506 3289 
Q 1669 3138 2303 2975 
L 3003 2803 
Q 3653 2641 3945 2297 
Q 4238 1953 4238 1350 
Q 4238 644 3750 276 
Q 3263 -91 2316 -91 
Q 1859 -91 1409 -12 
Q 959 66 494 225 
z
" transform="scale(0.015625)"/>
      <path id="DejaVuSerif-Bold-67" d="M 3853 2944 
L 3853 44 
Q 3853 -656 3354 -1039 
Q 2856 -1422 1947 -1422 
Q 1616 -1422 1275 -1370 
Q 934 -1319 575 -1216 
L 575 -422 
L 928 -422 
Q 975 -750 1192 -909 
Q 1409 -1069 1813 -1069 
Q 2325 -1069 2536 -823 
Q 2747 -578 2747 44 
L 2747 422 
Q 2606 163 2367 36 
Q 2128 -91 1778 -91 
Q 1072 -91 667 378 
Q 263 847 263 1663 
Q 263 2481 667 2947 
Q 1072 3413 1778 3413 
Q 2128 3413 2367 3286 
Q 2606 3159 2747 2900 
L 2747 3322 
L 4325 3322 
L 4325 2944 
L 3853 2944 
z
M 2747 1825 
Q 2747 2406 2597 2665 
Q 2447 2925 2119 2925 
Q 1775 2925 1636 2651 
Q 1497 2378 1497 1663 
Q 1497 947 1637 672 
Q 1778 397 2119 397 
Q 2447 397 2597 656 
Q 2747 916 2747 1497 
L 2747 1825 
z
" transform="scale(0.015625)"/>
      <path id="DejaVuSerif-Bold-46" d="M 300 0 
L 300 378 
L 897 378 
L 897 4288 
L 300 4288 
L 300 4666 
L 4459 4666 
L 4459 3566 
L 4031 3566 
L 4031 4238 
L 2106 4238 
L 2106 2741 
L 3291 2741 
L 3291 3334 
L 3719 3334 
L 3719 1722 
L 3291 1722 
L 3291 2316 
L 2106 2316 
L 2106 378 
L 2841 378 
L 2841 0 
L 300 0 
z
" transform="scale(0.015625)"/>
      <path id="DejaVuSerif-Bold-52" d="M 3397 2278 
Q 3675 2238 3865 2094 
Q 4056 1950 4197 1678 
L 4878 378 
L 5356 378 
L 5356 0 
L 3822 0 
L 3078 1409 
Q 2863 1847 2711 1967 
Q 2559 2088 2291 2088 
L 2100 2088 
L 2100 378 
L 2700 378 
L 2700 0 
L 300 0 
L 300 378 
L 897 378 
L 897 4288 
L 300 4288 
L 300 4666 
L 2963 4666 
Q 3775 4666 4217 4339 
Q 4659 4013 4659 3413 
Q 4659 2925 4345 2642 
Q 4031 2359 3397 2278 
z
M 2100 2463 
L 2509 2463 
Q 2947 2463 3183 2700 
Q 3419 2938 3419 3378 
Q 3419 3819 3183 4053 
Q 2947 4288 2509 4288 
L 2100 4288 
L 2100 2463 
z
" transform="scale(0.015625)"/>
      <path id="DejaVuSerif-Bold-76" d="M 1428 0 
L 250 2944 
L -116 2944 
L -116 3322 
L 1791 3322 
L 1791 2944 
L 1388 2944 
L 2228 844 
L 3066 2944 
L 2631 2944 
L 2631 3322 
L 3878 3322 
L 3878 2944 
L 3494 2944 
L 2316 0 
L 1428 0 
z
" transform="scale(0.015625)"/>
      <path id="DejaVuSerif-Bold-34" d="M 4084 0 
L 1516 0 
L 1516 378 
L 2209 378 
L 2209 1228 
L 263 1228 
L 263 1588 
L 2216 4750 
L 3391 4750 
L 3391 1631 
L 4191 1631 
L 4191 1228 
L 3391 1228 
L 3391 378 
L 4084 378 
L 4084 0 
z
M 2209 1631 
L 2209 3897 
L 819 1631 
L 2209 1631 
z
" transform="scale(0.015625)"/>
      <path id="DejaVuSerif-Bold-41" d="M -50 0 
L -50 378 
L 331 378 
L 2088 4666 
L 2834 4666 
L 4594 378 
L 5038 378 
L 5038 0 
L 2853 0 
L 2853 378 
L 3309 378 
L 2925 1331 
L 1172 1331 
L 781 378 
L 1338 378 
L 1338 0 
L -50 0 
z
M 1325 1709 
L 2772 1709 
L 2053 3494 
L 1325 1709 
z
" transform="scale(0.015625)"/>
     </defs>
     <use xlink:href="#DejaVuSerif-Bold-4c"/>
     <use xlink:href="#DejaVuSerif-Bold-69" transform="translate(70.3125 0)"/>
     <use xlink:href="#DejaVuSerif-Bold-6e" transform="translate(108.300781 0)"/>
     <use xlink:href="#DejaVuSerif-Bold-65" transform="translate(181.005859 0)"/>
     <use xlink:href="#DejaVuSerif-Bold-75" transform="translate(244.628906 0)"/>
     <use xlink:href="#DejaVuSerif-Bold-70" transform="translate(317.333984 0)"/>
     <use xlink:href="#DejaVuSerif-Bold-2d" transform="translate(387.255859 0)"/>
     <use xlink:href="#DejaVuSerif-Bold-4d" transform="translate(428.759766 0)"/>
     <use xlink:href="#DejaVuSerif-Bold-61" transform="translate(539.453125 0)"/>
     <use xlink:href="#DejaVuSerif-Bold-74" transform="translate(604.248047 0)"/>
     <use xlink:href="#DejaVuSerif-Bold-65" transform="translate(650.439453 0)"/>
     <use xlink:href="#DejaVuSerif-Bold-20" transform="translate(714.0625 0)"/>
     <use xlink:href="#DejaVuSerif-Bold-45" transform="translate(748.876953 0)"/>
     <use xlink:href="#DejaVuSerif-Bold-66" transform="translate(825.097656 0)"/>
     <use xlink:href="#DejaVuSerif-Bold-66" transform="translate(868.115234 0)"/>
     <use xlink:href="#DejaVuSerif-Bold-65" transform="translate(911.132812 0)"/>
     <use xlink:href="#DejaVuSerif-Bold-63" transform="translate(974.755859 0)"/>
     <use xlink:href="#DejaVuSerif-Bold-74" transform="translate(1035.644531 0)"/>
     <use xlink:href="#DejaVuSerif-Bold-20" transform="translate(1081.835938 0)"/>
     <use xlink:href="#DejaVuSerif-Bold-56" transform="translate(1116.650391 0)"/>
     <use xlink:href="#DejaVuSerif-Bold-61" transform="translate(1185.113281 0)"/>
     <use xlink:href="#DejaVuSerif-Bold-72" transform="translate(1249.908203 0)"/>
     <use xlink:href="#DejaVuSerif-Bold-69" transform="translate(1302.59375 0)"/>
     <use xlink:href="#DejaVuSerif-Bold-65" transform="translate(1340.582031 0)"/>
     <use xlink:href="#DejaVuSerif-Bold-73" transform="translate(1404.205078 0)"/>
     <use xlink:href="#DejaVuSerif-Bold-20" transform="translate(1460.503906 0)"/>
     <use xlink:href="#DejaVuSerif-Bold-57" transform="translate(1495.318359 0)"/>
     <use xlink:href="#DejaVuSerif-Bold-69" transform="translate(1605.873047 0)"/>
     <use xlink:href="#DejaVuSerif-Bold-74" transform="translate(1643.861328 0)"/>
     <use xlink:href="#DejaVuSerif-Bold-68" transform="translate(1690.052734 0)"/>
     <use xlink:href="#DejaVuSerif-Bold-20" transform="translate(1762.757812 0)"/>
     <use xlink:href="#DejaVuSerif-Bold-50" transform="translate(1797.572266 0)"/>
     <use xlink:href="#DejaVuSerif-Bold-6c" transform="translate(1872.767578 0)"/>
     <use xlink:href="#DejaVuSerif-Bold-61" transform="translate(1910.755859 0)"/>
     <use xlink:href="#DejaVuSerif-Bold-79" transform="translate(1975.550781 0)"/>
     <use xlink:href="#DejaVuSerif-Bold-65" transform="translate(2033.65625 0)"/>
     <use xlink:href="#DejaVuSerif-Bold-72" transform="translate(2097.279297 0)"/>
     <use xlink:href="#DejaVuSerif-Bold-20" transform="translate(2149.964844 0)"/>
     <use xlink:href="#DejaVuSerif-Bold-42" transform="translate(2184.779297 0)"/>
     <use xlink:href="#DejaVuSerif-Bold-61" transform="translate(2269.300781 0)"/>
     <use xlink:href="#DejaVuSerif-Bold-73" transform="translate(2334.095703 0)"/>
     <use xlink:href="#DejaVuSerif-Bold-65" transform="translate(2390.394531 0)"/>
     <use xlink:href="#DejaVuSerif-Bold-6c" transform="translate(2454.017578 0)"/>
     <use xlink:href="#DejaVuSerif-Bold-69" transform="translate(2492.005859 0)"/>
     <use xlink:href="#DejaVuSerif-Bold-6e" transform="translate(2529.994141 0)"/>
     <use xlink:href="#DejaVuSerif-Bold-65" transform="translate(2602.699219 0)"/>
     <use xlink:href="#DejaVuSerif-Bold-20" transform="translate(2666.322266 0)"/>
     <use xlink:href="#DejaVuSerif-Bold-20" transform="translate(2701.136719 0)"/>
     <use xlink:href="#DejaVuSerif-Bold-b7" transform="translate(2735.951172 0)"/>
     <use xlink:href="#DejaVuSerif-Bold-20" transform="translate(2770.765625 0)"/>
     <use xlink:href="#DejaVuSerif-Bold-20" transform="translate(2805.580078 0)"/>
     <use xlink:href="#DejaVuSerif-Bold-53" transform="translate(2840.394531 0)"/>
     <use xlink:href="#DejaVuSerif-Bold-69" transform="translate(2912.611328 0)"/>
     <use xlink:href="#DejaVuSerif-Bold-67" transform="translate(2950.599609 0)"/>
     <use xlink:href="#DejaVuSerif-Bold-6e" transform="translate(3020.521484 0)"/>
     <use xlink:href="#DejaVuSerif-Bold-2d" transform="translate(3093.226562 0)"/>
     <use xlink:href="#DejaVuSerif-Bold-46" transform="translate(3134.730469 0)"/>
     <use xlink:href="#DejaVuSerif-Bold-6c" transform="translate(3205.726562 0)"/>
     <use xlink:href="#DejaVuSerif-Bold-69" transform="translate(3243.714844 0)"/>
     <use xlink:href="#DejaVuSerif-Bold-70" transform="translate(3281.703125 0)"/>
     <use xlink:href="#DejaVuSerif-Bold-20" transform="translate(3351.625 0)"/>
     <use xlink:href="#DejaVuSerif-Bold-52" transform="translate(3386.439453 0)"/>
     <use xlink:href="#DejaVuSerif-Bold-65" transform="translate(3469.544922 0)"/>
     <use xlink:href="#DejaVuSerif-Bold-76" transform="translate(3533.167969 0)"/>
     <use xlink:href="#DejaVuSerif-Bold-65" transform="translate(3591.273438 0)"/>
     <use xlink:href="#DejaVuSerif-Bold-61" transform="translate(3654.896484 0)"/>
     <use xlink:href="#DejaVuSerif-Bold-6c" transform="translate(3719.691406 0)"/>
     <use xlink:href="#DejaVuSerif-Bold-73" transform="translate(3757.679688 0)"/>
     <use xlink:href="#DejaVuSerif-Bold-20" transform="translate(3813.978516 0)"/>
     <use xlink:href="#DejaVuSerif-Bold-50" transform="translate(3848.792969 0)"/>
     <use xlink:href="#DejaVuSerif-Bold-68" transform="translate(3923.988281 0)"/>
     <use xlink:href="#DejaVuSerif-Bold-61" transform="translate(3996.693359 0)"/>
     <use xlink:href="#DejaVuSerif-Bold-73" transform="translate(4061.488281 0)"/>
     <use xlink:href="#DejaVuSerif-Bold-65" transform="translate(4117.787109 0)"/>
     <use xlink:href="#DejaVuSerif-Bold-20" transform="translate(4181.410156 0)"/>
     <use xlink:href="#DejaVuSerif-Bold-34" transform="translate(4216.224609 0)"/>
     <use xlink:href="#DejaVuSerif-Bold-20" transform="translate(4285.804688 0)"/>
     <use xlink:href="#DejaVuSerif-Bold-41" transform="translate(4320.619141 0)"/>
     <use xlink:href="#DejaVuSerif-Bold-72" transform="translate(4398.207031 0)"/>
     <use xlink:href="#DejaVuSerif-Bold-63" transform="translate(4450.892578 0)"/>
     <use xlink:href="#DejaVuSerif-Bold-68" transform="translate(4511.78125 0)"/>
     <use xlink:href="#DejaVuSerif-Bold-69" transform="translate(4584.486328 0)"/>
     <use xlink:href="#DejaVuSerif-Bold-74" transform="translate(4622.474609 0)"/>
     <use xlink:href="#DejaVuSerif-Bold-65" transform="translate(4668.666016 0)"/>
     <use xlink:href="#DejaVuSerif-Bold-63" transform="translate(4732.289062 0)"/>
     <use xlink:href="#DejaVuSerif-Bold-74" transform="translate(4793.177734 0)"/>
     <use xlink:href="#DejaVuSerif-Bold-75" transform="translate(4839.369141 0)"/>
     <use xlink:href="#DejaVuSerif-Bold-72" transform="translate(4912.074219 0)"/>
     <use xlink:href="#DejaVuSerif-Bold-65" transform="translate(4964.759766 0)"/>
    </g>
   </g>
   <g id="legend_1">
    <g id="line2d_39">
     <path d="M 63.096563 37.696094 
L 73.096563 37.696094 
L 83.096563 37.696094 
" style="fill: none; stroke: #0d0887; stroke-opacity: 0.9; stroke-width: 2.5; stroke-linecap: square"/>
     <g>
      <use xlink:href="#mbdad419b54" x="73.096563" y="37.696094" style="fill: #0d0887; fill-opacity: 0.9; stroke: #0d0887; stroke-opacity: 0.9"/>
     </g>
    </g>
    <g id="text_22">
     <!-- REB -->
     <g transform="translate(91.096563 41.196094) scale(0.1 -0.1)">
      <defs>
       <path id="DejaVuSans-52" d="M 2841 2188 
Q 3044 2119 3236 1894 
Q 3428 1669 3622 1275 
L 4263 0 
L 3584 0 
L 2988 1197 
Q 2756 1666 2539 1819 
Q 2322 1972 1947 1972 
L 1259 1972 
L 1259 0 
L 628 0 
L 628 4666 
L 2053 4666 
Q 2853 4666 3247 4331 
Q 3641 3997 3641 3322 
Q 3641 2881 3436 2590 
Q 3231 2300 2841 2188 
z
M 1259 4147 
L 1259 2491 
L 2053 2491 
Q 2509 2491 2742 2702 
Q 2975 2913 2975 3322 
Q 2975 3731 2742 3939 
Q 2509 4147 2053 4147 
L 1259 4147 
z
" transform="scale(0.015625)"/>
       <path id="DejaVuSans-45" d="M 628 4666 
L 3578 4666 
L 3578 4134 
L 1259 4134 
L 1259 2753 
L 3481 2753 
L 3481 2222 
L 1259 2222 
L 1259 531 
L 3634 531 
L 3634 0 
L 628 0 
L 628 4666 
z
" transform="scale(0.015625)"/>
       <path id="DejaVuSans-42" d="M 1259 2228 
L 1259 519 
L 2272 519 
Q 2781 519 3026 730 
Q 3272 941 3272 1375 
Q 3272 1813 3026 2020 
Q 2781 2228 2272 2228 
L 1259 2228 
z
M 1259 4147 
L 1259 2741 
L 2194 2741 
Q 2656 2741 2882 2914 
Q 3109 3088 3109 3444 
Q 3109 3797 2882 3972 
Q 2656 4147 2194 4147 
L 1259 4147 
z
M 628 4666 
L 2241 4666 
Q 2963 4666 3353 4366 
Q 3744 4066 3744 3513 
Q 3744 3084 3544 2831 
Q 3344 2578 2956 2516 
Q 3422 2416 3680 2098 
Q 3938 1781 3938 1306 
Q 3938 681 3513 340 
Q 3088 0 2303 0 
L 628 0 
L 628 4666 
z
" transform="scale(0.015625)"/>
      </defs>
      <use xlink:href="#DejaVuSans-52"/>
      <use xlink:href="#DejaVuSans-45" transform="translate(69.482422 0)"/>
      <use xlink:href="#DejaVuSans-42" transform="translate(132.666016 0)"/>
     </g>
    </g>
    <g id="line2d_40">
     <path d="M 63.096563 52.374219 
L 73.096563 52.374219 
L 83.096563 52.374219 
" style="fill: none; stroke: #46039f; stroke-opacity: 0.9; stroke-width: 2.5; stroke-linecap: square"/>
     <g>
      <use xlink:href="#me05c4a2d32" x="73.096563" y="52.374219" style="fill: #46039f; fill-opacity: 0.9; stroke: #46039f; stroke-opacity: 0.9"/>
     </g>
    </g>
    <g id="text_23">
     <!-- OREB -->
     <g transform="translate(91.096563 55.874219) scale(0.1 -0.1)">
      <defs>
       <path id="DejaVuSans-4f" d="M 2522 4238 
Q 1834 4238 1429 3725 
Q 1025 3213 1025 2328 
Q 1025 1447 1429 934 
Q 1834 422 2522 422 
Q 3209 422 3611 934 
Q 4013 1447 4013 2328 
Q 4013 3213 3611 3725 
Q 3209 4238 2522 4238 
z
M 2522 4750 
Q 3503 4750 4090 4092 
Q 4678 3434 4678 2328 
Q 4678 1225 4090 567 
Q 3503 -91 2522 -91 
Q 1538 -91 948 565 
Q 359 1222 359 2328 
Q 359 3434 948 4092 
Q 1538 4750 2522 4750 
z
" transform="scale(0.015625)"/>
      </defs>
      <use xlink:href="#DejaVuSans-4f"/>
      <use xlink:href="#DejaVuSans-52" transform="translate(78.710938 0)"/>
      <use xlink:href="#DejaVuSans-45" transform="translate(148.193359 0)"/>
      <use xlink:href="#DejaVuSans-42" transform="translate(211.376953 0)"/>
     </g>
    </g>
    <g id="line2d_41">
     <path d="M 63.096563 67.052344 
L 73.096563 67.052344 
L 83.096563 67.052344 
" style="fill: none; stroke: #7201a8; stroke-opacity: 0.9; stroke-width: 2.5; stroke-linecap: square"/>
     <g>
      <use xlink:href="#m259513694b" x="73.096563" y="67.052344" style="fill: #7201a8; fill-opacity: 0.9; stroke: #7201a8; stroke-opacity: 0.9"/>
     </g>
    </g>
    <g id="text_24">
     <!-- DREB -->
     <g transform="translate(91.096563 70.552344) scale(0.1 -0.1)">
      <defs>
       <path id="DejaVuSans-44" d="M 1259 4147 
L 1259 519 
L 2022 519 
Q 2988 519 3436 956 
Q 3884 1394 3884 2338 
Q 3884 3275 3436 3711 
Q 2988 4147 2022 4147 
L 1259 4147 
z
M 628 4666 
L 1925 4666 
Q 3281 4666 3915 4102 
Q 4550 3538 4550 2338 
Q 4550 1131 3912 565 
Q 3275 0 1925 0 
L 628 0 
L 628 4666 
z
" transform="scale(0.015625)"/>
      </defs>
      <use xlink:href="#DejaVuSans-44"/>
      <use xlink:href="#DejaVuSans-52" transform="translate(77.001953 0)"/>
      <use xlink:href="#DejaVuSans-45" transform="translate(146.484375 0)"/>
      <use xlink:href="#DejaVuSans-42" transform="translate(209.667969 0)"/>
     </g>
    </g>
    <g id="line2d_42">
     <path d="M 63.096563 81.730469 
L 73.096563 81.730469 
L 83.096563 81.730469 
" style="fill: none; stroke: #9c179e; stroke-opacity: 0.9; stroke-width: 2.5; stroke-linecap: square"/>
     <g>
      <use xlink:href="#maffbdb034c" x="73.096563" y="81.730469" style="fill: #9c179e; fill-opacity: 0.9; stroke: #9c179e; stroke-opacity: 0.9"/>
     </g>
    </g>
    <g id="text_25">
     <!-- AST -->
     <g transform="translate(91.096563 85.230469) scale(0.1 -0.1)">
      <defs>
       <path id="DejaVuSans-41" d="M 2188 4044 
L 1331 1722 
L 3047 1722 
L 2188 4044 
z
M 1831 4666 
L 2547 4666 
L 4325 0 
L 3669 0 
L 3244 1197 
L 1141 1197 
L 716 0 
L 50 0 
L 1831 4666 
z
" transform="scale(0.015625)"/>
       <path id="DejaVuSans-53" d="M 3425 4513 
L 3425 3897 
Q 3066 4069 2747 4153 
Q 2428 4238 2131 4238 
Q 1616 4238 1336 4038 
Q 1056 3838 1056 3469 
Q 1056 3159 1242 3001 
Q 1428 2844 1947 2747 
L 2328 2669 
Q 3034 2534 3370 2195 
Q 3706 1856 3706 1288 
Q 3706 609 3251 259 
Q 2797 -91 1919 -91 
Q 1588 -91 1214 -16 
Q 841 59 441 206 
L 441 856 
Q 825 641 1194 531 
Q 1563 422 1919 422 
Q 2459 422 2753 634 
Q 3047 847 3047 1241 
Q 3047 1584 2836 1778 
Q 2625 1972 2144 2069 
L 1759 2144 
Q 1053 2284 737 2584 
Q 422 2884 422 3419 
Q 422 4038 858 4394 
Q 1294 4750 2059 4750 
Q 2388 4750 2728 4690 
Q 3069 4631 3425 4513 
z
" transform="scale(0.015625)"/>
       <path id="DejaVuSans-54" d="M -19 4666 
L 3928 4666 
L 3928 4134 
L 2272 4134 
L 2272 0 
L 1638 0 
L 1638 4134 
L -19 4134 
L -19 4666 
z
" transform="scale(0.015625)"/>
      </defs>
      <use xlink:href="#DejaVuSans-41"/>
      <use xlink:href="#DejaVuSans-53" transform="translate(68.408203 0)"/>
      <use xlink:href="#DejaVuSans-54" transform="translate(131.884766 0)"/>
     </g>
    </g>
    <g id="line2d_43">
     <path d="M 63.096563 96.408594 
L 73.096563 96.408594 
L 83.096563 96.408594 
" style="fill: none; stroke: #bd3786; stroke-opacity: 0.9; stroke-width: 2.5; stroke-linecap: square"/>
     <g>
      <use xlink:href="#m296934cfa2" x="73.096563" y="96.408594" style="fill: #bd3786; fill-opacity: 0.9; stroke: #bd3786; stroke-opacity: 0.9"/>
     </g>
    </g>
    <g id="text_26">
     <!-- PTS -->
     <g transform="translate(91.096563 99.908594) scale(0.1 -0.1)">
      <defs>
       <path id="DejaVuSans-50" d="M 1259 4147 
L 1259 2394 
L 2053 2394 
Q 2494 2394 2734 2622 
Q 2975 2850 2975 3272 
Q 2975 3691 2734 3919 
Q 2494 4147 2053 4147 
L 1259 4147 
z
M 628 4666 
L 2053 4666 
Q 2838 4666 3239 4311 
Q 3641 3956 3641 3272 
Q 3641 2581 3239 2228 
Q 2838 1875 2053 1875 
L 1259 1875 
L 1259 0 
L 628 0 
L 628 4666 
z
" transform="scale(0.015625)"/>
      </defs>
      <use xlink:href="#DejaVuSans-50"/>
      <use xlink:href="#DejaVuSans-54" transform="translate(60.302734 0)"/>
      <use xlink:href="#DejaVuSans-53" transform="translate(121.386719 0)"/>
     </g>
    </g>
    <g id="line2d_44">
     <path d="M 139.096563 37.696094 
L 149.096563 37.696094 
L 159.096563 37.696094 
" style="fill: none; stroke: #d8576b; stroke-opacity: 0.9; stroke-width: 2.5; stroke-linecap: square"/>
     <g>
      <use xlink:href="#m0d6cb26124" x="149.096563" y="37.696094" style="fill: #d8576b; fill-opacity: 0.9; stroke: #d8576b; stroke-opacity: 0.9"/>
     </g>
    </g>
    <g id="text_27">
     <!-- TOV -->
     <g transform="translate(167.096563 41.196094) scale(0.1 -0.1)">
      <defs>
       <path id="DejaVuSans-56" d="M 1831 0 
L 50 4666 
L 709 4666 
L 2188 738 
L 3669 4666 
L 4325 4666 
L 2547 0 
L 1831 0 
z
" transform="scale(0.015625)"/>
      </defs>
      <use xlink:href="#DejaVuSans-54"/>
      <use xlink:href="#DejaVuSans-4f" transform="translate(61.083984 0)"/>
      <use xlink:href="#DejaVuSans-56" transform="translate(138.044922 0)"/>
     </g>
    </g>
    <g id="line2d_45">
     <path d="M 139.096563 52.374219 
L 149.096563 52.374219 
L 159.096563 52.374219 
" style="fill: none; stroke: #ed7953; stroke-opacity: 0.9; stroke-width: 2.5; stroke-linecap: square"/>
     <g>
      <use xlink:href="#m4bf755fc1c" x="149.096563" y="52.374219" style="fill: #ed7953; fill-opacity: 0.9; stroke: #ed7953; stroke-opacity: 0.9"/>
     </g>
    </g>
    <g id="text_28">
     <!-- FGA -->
     <g transform="translate(167.096563 55.874219) scale(0.1 -0.1)">
      <defs>
       <path id="DejaVuSans-46" d="M 628 4666 
L 3309 4666 
L 3309 4134 
L 1259 4134 
L 1259 2759 
L 3109 2759 
L 3109 2228 
L 1259 2228 
L 1259 0 
L 628 0 
L 628 4666 
z
" transform="scale(0.015625)"/>
       <path id="DejaVuSans-47" d="M 3809 666 
L 3809 1919 
L 2778 1919 
L 2778 2438 
L 4434 2438 
L 4434 434 
Q 4069 175 3628 42 
Q 3188 -91 2688 -91 
Q 1594 -91 976 548 
Q 359 1188 359 2328 
Q 359 3472 976 4111 
Q 1594 4750 2688 4750 
Q 3144 4750 3555 4637 
Q 3966 4525 4313 4306 
L 4313 3634 
Q 3963 3931 3569 4081 
Q 3175 4231 2741 4231 
Q 1884 4231 1454 3753 
Q 1025 3275 1025 2328 
Q 1025 1384 1454 906 
Q 1884 428 2741 428 
Q 3075 428 3337 486 
Q 3600 544 3809 666 
z
" transform="scale(0.015625)"/>
      </defs>
      <use xlink:href="#DejaVuSans-46"/>
      <use xlink:href="#DejaVuSans-47" transform="translate(57.519531 0)"/>
      <use xlink:href="#DejaVuSans-41" transform="translate(135.009766 0)"/>
     </g>
    </g>
    <g id="line2d_46">
     <path d="M 139.096563 67.052344 
L 149.096563 67.052344 
L 159.096563 67.052344 
" style="fill: none; stroke: #fb9f3a; stroke-opacity: 0.9; stroke-width: 2.5; stroke-linecap: square"/>
     <g>
      <use xlink:href="#me083d6e175" x="149.096563" y="67.052344" style="fill: #fb9f3a; fill-opacity: 0.9; stroke: #fb9f3a; stroke-opacity: 0.9"/>
     </g>
    </g>
    <g id="text_29">
     <!-- FG3A -->
     <g transform="translate(167.096563 70.552344) scale(0.1 -0.1)">
      <use xlink:href="#DejaVuSans-46"/>
      <use xlink:href="#DejaVuSans-47" transform="translate(57.519531 0)"/>
      <use xlink:href="#DejaVuSans-33" transform="translate(135.009766 0)"/>
      <use xlink:href="#DejaVuSans-41" transform="translate(198.632812 0)"/>
     </g>
    </g>
    <g id="line2d_47">
     <path d="M 139.096563 81.730469 
L 149.096563 81.730469 
L 159.096563 81.730469 
" style="fill: none; stroke: #fdca26; stroke-opacity: 0.9; stroke-width: 2.5; stroke-linecap: square"/>
     <g>
      <use xlink:href="#me685ee6cf6" x="149.096563" y="81.730469" style="fill: #fdca26; fill-opacity: 0.9; stroke: #fdca26; stroke-opacity: 0.9"/>
     </g>
    </g>
    <g id="text_30">
     <!-- BLK -->
     <g transform="translate(167.096563 85.230469) scale(0.1 -0.1)">
      <defs>
       <path id="DejaVuSans-4c" d="M 628 4666 
L 1259 4666 
L 1259 531 
L 3531 531 
L 3531 0 
L 628 0 
L 628 4666 
z
" transform="scale(0.015625)"/>
       <path id="DejaVuSans-4b" d="M 628 4666 
L 1259 4666 
L 1259 2694 
L 3353 4666 
L 4166 4666 
L 1850 2491 
L 4331 0 
L 3500 0 
L 1259 2247 
L 1259 0 
L 628 0 
L 628 4666 
z
" transform="scale(0.015625)"/>
      </defs>
      <use xlink:href="#DejaVuSans-42"/>
      <use xlink:href="#DejaVuSans-4c" transform="translate(68.603516 0)"/>
      <use xlink:href="#DejaVuSans-4b" transform="translate(124.316406 0)"/>
     </g>
    </g>
    <g id="line2d_48">
     <path d="M 139.096563 96.408594 
L 149.096563 96.408594 
L 159.096563 96.408594 
" style="fill: none; stroke: #f0f921; stroke-opacity: 0.9; stroke-width: 2.5; stroke-linecap: square"/>
     <g>
      <use xlink:href="#m57987897f1" x="149.096563" y="96.408594" style="fill: #f0f921; fill-opacity: 0.9; stroke: #f0f921; stroke-opacity: 0.9"/>
     </g>
    </g>
    <g id="text_31">
     <!-- STL -->
     <g transform="translate(167.096563 99.908594) scale(0.1 -0.1)">
      <use xlink:href="#DejaVuSans-53"/>
      <use xlink:href="#DejaVuSans-54" transform="translate(63.476562 0)"/>
      <use xlink:href="#DejaVuSans-4c" transform="translate(124.560547 0)"/>
     </g>
    </g>
   </g>
  </g>
 </g>
 <defs>
  <clipPath id="p081e157070">
   <rect x="54.096563" y="24.597656" width="955.102958" height="448.139364"/>
  </clipPath>
 </defs>
</svg>
